<?xml version="1.0" encoding="UTF-8"?>
<svg version="1.1" viewBox="0 0 2048 808" width="1280" height="1280" xmlns="http://www.w3.org/2000/svg">
<path transform="translate(0)" d="m0 0h2048v808h-2048z" fill="#060507"/>
<path transform="translate(2046,657)" d="m0 0h2v151h-247l-1-3h3v-5l-7-1-1-2 3-1v-4l-2-1 5-5 6-3 1-4 5-3 5-1 3-3 17-9 11-6 32-16 15-8 17-8 36-19 16-8 15-8 19-9 16-8 17-9z" fill="#16181D"/>
<path transform="translate(1108,510)" d="m0 0h20l12 7 6 5 5 8 5 11v27l-4 10-4 8-6 7-14 7h-22l-10-5-4-5-2-1 1 3v49l-1 1h-27v-131h28l1 10 10-8z" fill="#FBFBFC"/>
<path transform="translate(1e3 510)" d="m0 0h19l12 6 8 7 5 8 4 10v27l-4 12-6 9-7 6-7 4-5 1h-18l-10-4-8-6v51l-1 1h-26v-131h26v11l9-7z" fill="#FBFBFB"/>
<path transform="translate(2036,724)" d="m0 0h2l-1 5h-2v6l3 1 6-2-1-4 5 2v76h-167l3-4 10-4v-3l-1-5 2-1 4 1v-2h2v-6l10-4 1-2 8-2 3-2 7-2 3-2 5-1 2-4 7-1 3-4 8-1 1-3 12-5 10-6 5-2 7-5h4l9-3 10-5 2-3 5-1 6 2 3-1 2-2z" fill="#060506"/>
<path transform="translate(685,482)" d="m0 0h28v118l-1 1h-26l-1-1v-12h-2l-2 5-5 4-7 3-5 1h-14l-10-4-9-7-4-4-7-17-1-1v-25l5-13 6-8 8-7 9-4 9-1h11l7 3v2l4 1 3 2v2l4 1z" fill="#A55EF7"/>
<path transform="translate(550,510)" d="m0 0h8l7 1 10 6 3 3v2h3v-12h26l1 2v87l-1 1h-26v-12h-2l-2 4-2 2h-3v2h-3v2l-9 3h-12l-11-3-11-8-7-10-5-17v-16l5-17 7-9 6-5 11-5z" fill="#A55EF8"/>
<path transform="translate(1288)" d="m0 0h70l-3 2-4 1v2l-42 22-64 32-17 9-16 8-21 11-19 9-17 9-16 8-9 4h-3l-4-7-9-18 2-4 14-8 29-15 56-28 19-10 38-19z" fill="#574A8C"/>
<path transform="translate(653,351)" d="m0 0h15l9 4 6 4 2 4h3v-9l1-1h25v88h-26v-10l-7 6-13 5-1 1h-14l-9-4-9-6-5-6-4-7-4-14-1-4v-10l3-13 4-10 7-8 10-7z" fill="#FCFCFC"/>
<path transform="translate(878,488)" d="m0 0h31l7 17 4 13 4 10 4 12 3 6 3 9 3 8 5 16 4 10 4 9v2h-29l-2-3-4-13v-4h-42l-2 5-4 14-3 2h-25l-2-3 5-12v-3l-3 5-2 8h-2v-6l5-10 5-3 3-7 3-9 6-17 3-8 4-11 11-30z" fill="#FCFCFC"/>
<path transform="translate(256,482)" d="m0 0h26l1 1 1 10v27l6-4h3v-2l9-4h17l12 6 5 4 6 10 3 11v59h-27l-1-54-6-9-4-3h-13l-8 6-1 1-1 59h-28z" fill="#A65EF9"/>
<path transform="translate(499,328)" d="m0 0h20v2l9 1 10 5 5 5 5 7 3 9 1 4h-31l-6-9-1-1h-12l-4 5v7l2 5 9 3 9 4 7 2 14 7 9 8 4 8v15l-6 13-9 8-8 4-12 3h-14l-9-2-2-2-8-3-6-4-4-5-4-8-2-7v-4h28l4 8 2 2 11 2 8-3 1-1 1-11h-2v-2l-4-2-12-5-20-7-9-7-5-6-2-6v-19l5-9 8-7 7-4 8-2z" fill="#FAFAFB"/>
<path transform="translate(824,324)" d="m0 0h28l1 63 10-14 11-15 4-5h33l-2 4-6 7-11 14-10 11-5 7 1 4 9 10 9 11 12 14 4 4v2h-34l-22-30v-3h-2v-2h-2v35h-28z" fill="#F8F8F9"/>
<path transform="translate(452,510)" d="m0 0h25l8 4 11 7 8 11 5 11v12l-1 6-3 1h-58l4 12 6 3 16 1v-2h2l1-5h30v4h-2l-1 6h-2l-1 4-7 7-9 5-9 3-12 1-11-1-11-4v-2l-4-1-8-7-5-8-3-8-2-12 1-9 2-13 6-10 5-6 14-8z" fill="#A55EF8"/>
<path transform="translate(1405,607)" d="m0 0 4 2 9 15 5 11v5l-9 6-16 8-21 11-48 24-21 11-11 5-4-1-8-15-6-12v-5l10-6 29-15 42-21 19-10z" fill="#574A8C"/>
<path transform="translate(310,353)" d="m0 0h27l1 1v87h-28l-1-1v-8l-7 5-8 4-8 2h-7l-9-3-8-4-8-8-4-9-1-5v-60h26l1 52 2 5 5 6 2 1h14l7-5 2-3 1-56z" fill="#FAFAFB"/>
<path transform="translate(764,351)" d="m0 0h16l10 4 6 3 10 9 5 10v4h2v4h-29l-4-7-3-2h-13l-6 5-4 11v10l5 12 5 4h12l6-5 2-4h28l-1 8-3 6-6 8-8 6-10 4-6 2h-16l-9-3-8-4-8-7-6-9-3-6-1-6v-22l2-8 5-10 4-5 12-8 9-3z" fill="#FAFAFA"/>
<path transform="translate(750,510)" d="m0 0h25l14 7 8 10 3 8v4l-2 1h-22l-4-6-2-1v-2h-13l-5 2v7l5 2 4 2 7 1 6 3 9 2 10 6 6 7v3h2v14l-4 8-9 8-6 3-10 2h-9l-11-1-10-4-9-6-4-5-5-9v-5h27l1 5h2v2l5 1 1 1h10l4-3h2v-6h-2v-2l-8-2-3-2-18-4-11-6-4-4-3-8v-10l3-9 4-5h2v-2z" fill="#A55EF8"/>
<path transform="translate(166,331)" d="m0 0h71v20h-45v24h35v20l-1 1h-34v45h-26z" fill="#FCFCFD"/>
<path transform="translate(159,488)" d="m0 0h87v22h-30v90h-28v-89h-28l-1-1z" fill="#A55EF8"/>
<path transform="translate(571,332)" d="m0 0h26v21h18v22h-18l1 39 3 3 14 1v23h-24l-10-4-6-5-4-8v-49h-12l-1-1v-20l11-1z" fill="#FCFCFC"/>
<path transform="translate(398,324)" d="m0 0h27v117h-28v-116z" fill="#FAFAFA"/>
<path transform="translate(353,324)" d="m0 0h27v117h-27z" fill="#FCFCFC"/>
<path transform="translate(407,510)" d="m0 0h8v29l-16 1-5 2-4 5-2 3-1 50h-27v-89h27v13h3l2-4 11-8z" fill="#A55EF8"/>
<path transform="translate(1334,279)" d="m0 0h12l6 3 5 4 6 9 1 3v12l-4 7-4 5-9 5h-16l-6-4-7-8-2-5v-14l3-6 8-8z" fill="#8C8A9E"/>
<path transform="translate(2007)" d="m0 0h41v81l-1-4-3-1-2-5-1-3h-2l-8-16-6-11v-3l-3-1-1-4-3-6-2-2-3-8-2-3v-3h-2l-3-6z" fill="#16181D"/>
<path transform="translate(662,375)" d="m0 0h10l6 2 5 4v2h2l3 6v15l-7 11-7 4h-11l-7-4-5-6-2-6v-12l3-8 8-7z" fill="#0A080B"/>
<path transform="translate(998,534)" d="m0 0h14l9 7 3 5v18l-4 7-10 7h-11l-10-9v-2h-2l-2-8v-7l4-10 5-5z" fill="#0A090C"/>
<path transform="translate(1104,534)" d="m0 0h13l9 8 3 6v14l-5 9-11 7h-9l-9-7-4-6-1-4v-11l3-8 5-6z" fill="#09080B"/>
<path transform="translate(554,534)" d="m0 0h13l7 4 2 4h2l3 7v14l-4 6-8 7-4 2h-8l-6-3v-2l-6-3-3-6v-17l6-8z" fill="#08070A"/>
<path transform="translate(660,534)" d="m0 0h11l8 4 6 11v14l-4 7-7 6-3 2h-10l-6-3v-2l-4-2v-2h-2l-3-8v-11l6-11 5-4z" fill="#080709"/>
<path transform="translate(763,637)" d="m0 0 5 1 6 10 1 6-8 5-31 16-4 1-5-5-4-7v-5l5-4 29-15z" fill="#2F294A"/>
<path transform="translate(817,740)" d="m0 0 4 1 5 8 1 9-11 6-16 8-6 4-7 2h-5l-1-4h-2l-3-7v-6l5-3h2v-2l7-3 24-12z" fill="#312A4C"/>
<path transform="translate(795,288)" d="m0 0 4 1 6 9v7l-22 12-12 6-8 1-6-9-1-6 9-6 12-6h2v-2z" fill="#302A4B"/>
<path transform="translate(769,239)" d="m0 0 5 1 5 8 1 7-9 6-23 12-5 2-7-1-5-10 1-5 8-5z" fill="#2F2949"/>
<path transform="translate(512,467)" d="m0 0h5l7 14-2 4-12 7-11 6-12 6-7 1-1-3v-18l12-6 16-9z" fill="#17191E"/>
<path transform="translate(720,141)" d="m0 0 6 5 4 10-10 7-19 10-11 5-5-2-5-10 1-5 10-6 23-12z" fill="#2F2949"/>
<path transform="translate(1173,675)" d="m0 0h6l5 6 3 10-7 6-19 9-8 4-4-1-7-14 2-4 10-6z" fill="#564A8B"/>
<path transform="translate(1150,623)" d="m0 0 4 1 6 10 1 6-14 8-16 8-3 2-5-1-7-11v-5l5-4 25-13z" fill="#56498A"/>
<path transform="translate(1070,468)" d="m0 0 4 1 4 5 3 6v6l-13 8-15 7-9 1-4-5-2-6v-5l8-6z" fill="#56498A"/>
<path transform="translate(2027,118)" d="m0 0 5 1 4 4 1 7h2v6l-23 12-6 1v2l-6 1v-3h-2v-3h-2l-4-7 1-5 10-6 7-2 5-3h2v-2z" fill="#A25DF4"/>
<path transform="translate(1977,20)" d="m0 0h5l1 4h2v3h2l2 4v5l-4 4-6 3-9 5-8 3-3 2h-6l-6-11v-5l6-5 10-5 5-2z" fill="#A35DF5"/>
<path transform="translate(1231,782)" d="m0 0 4 2 4 5 3 6v5l-7 5-5 3h-42l6-7 27-14z" fill="#584B8C"/>
<path transform="translate(2e3 70)" d="m0 0h7l1 3h2v3h2l2 8-2 4-6 3h-3v2l-14 7-6 1v2h-4l-2-6h-2l-3-8v-4h3v-2l11-5h2v-2l4-2h4v-2z" fill="#A45EF7"/>
<path transform="translate(926,731)" d="m0 0h7l8 3 5 8v10l-6 7-8 4h-7v-2l-6-2-3-4-1-5v-9l5-7z" fill="#181A21"/>
<path transform="translate(875,627)" d="m0 0 8 1 6 4 3 3 1 3v9l-3 6-6 5-3 1h-8l-5-3-5-6-1-3v-7l3-6 7-6z" fill="#2F2949"/>
<path transform="translate(743,193)" d="m0 0 3 1 7 12-4 4-19 9-14 7h-4l-4-11-1-6 8-4 18-8z" fill="#17191E"/>
<path transform="translate(1444,481)" d="m0 0h8l6 3 5 6 1 2v8l-2 5-7 6-3 1h-9l-8-7-2-3v-11l7-8z" fill="#C3C3C9"/>
<path transform="translate(1762,123)" d="m0 0h15l7 6 1 3v10l-3 5-5 4-5 2-9-1-6-5-3-5-1-8 6-8z" fill="#F7F7F8"/>
<path transform="translate(666,38)" d="m0 0 4 2 5 10v5l-14 8-16 8h-4l-6-11v-5l5-4z" fill="#2F2949"/>
<path transform="translate(1967,519)" d="m0 0h10l6 4 5 6v10l-4 6-4 2v2l-4 1h-8l-5-3-4-5-1-3v-9l3-6z" fill="#9694A7"/>
<path transform="translate(1592,776)" d="m0 0h13l7 6 2 5v8l-4 6-3 1v2l-4 2h-9l-6-4-4-4-1-3v-9l6-8z" fill="#D1D2D5"/>
<path transform="translate(1791,171)" d="m0 0h7l6 3 6 7 1 2v7l-6 8-4 3-9 1-7-4-6-8 1-9 7-8z" fill="#89879C"/>
<path transform="translate(1521,628)" d="m0 0 8 1 3 1v2l4 2 3 5v9l-3 5-5 4-3 2h-10l-7-6-2-3v-13l4-5z" fill="#CFD0D2"/>
<path transform="translate(1942,470)" d="m0 0h8l8 4 4 6v9l-2 6-4 4-7 1v2l-7-1-7-6-3-8 1-8 7-8z" fill="#C6C6CB"/>
<path transform="translate(530,294)" d="m0 0h11l6 4 4 7-1 10-3 5-6 4h-9l-6-3-5-7-1-8 2-5z" fill="#17191E"/>
<path transform="translate(1840,269)" d="m0 0h8l7 4 3 4 1 13-6 7-5 2h-10l-5-4-3-6v-10l5-7z" fill="#5C4D91"/>
<path transform="translate(617)" d="m0 0h32l1 5-3 3-23 12-4 2-5-1-6-12 2-4z" fill="#2F2949"/>
<path transform="translate(893,520)" d="m0 0 3 3 4 13 4 12 3 7v4h-27l1-5 5-15 5-14z" fill="#0F0D13"/>
<path transform="translate(1993,568)" d="m0 0h10l5 3 4 5 1 11-2 6-3-1-4-11-3-4h-3l7 9-2 1-5-5-4-3v-3l-2-1 2 10h2v2l3 1v3l3 1v6l-5 1 1-9h-2v-2l-4 1v7l-5-1-5-7v-10l7-8z" fill="#BABAC2"/>
<path transform="translate(1865,318)" d="m0 0h10l9 7 1 2v12l-1 3h-2l-2 4-8 3h-6l1-11-7-13 1-4z" fill="#F3F3F4"/>
<path transform="translate(2046,171)" d="m0 0h2v22l-13 7h-6v-2h-2l-2-7h-2l-1-8 10-6 10-5z" fill="#A45EF7"/>
<path transform="translate(954,781)" d="m0 0h6l6 3 5 6 2 4v7l-3 7h-15l-6-16-2-3 1-5z" fill="#574A8A"/>
<path transform="translate(1787,60)" d="m0 0h4l3 10-1 1-8 1-2 3h-2v-6l-4 6-1 3-7 4-3 3h-1l-1-5-5 1-2 6h2v-2l4 1-5 4-3 4-6-3v5l-4 2v-7l-1-4-6 3h5l1 2-4 5h-3v-4h-3l1-4 7-4h3l3 3 5-1v-2l-6 1 2-4 8-4 6-2 4-2 3-6h2v5h2l2-4h2v-2l5-1v2h2v-2h2z" fill="#C2C1CC"/>
<path transform="translate(1916,373)" d="m0 0h2l-2 6 2 1-1 5-6 3h-5l-5 1v2l-5-1-1 4-6 5-6 2-1 1h-6l-3-5 1-5 3-3h9l4-3h3l-2 4-1 3 5-7h4v-2l-4-2 3-3 6 1 2 1v-2z" fill="#918DA6"/>
<path transform="translate(1915,422)" d="m0 0h15l8 8v8l-4-2-7-1-4-7-2-2-4-1 5 5 2 4-1 4-4-1-1 4-3 7-4-1-3-4-1-9 3-7z" fill="#C6C6CB"/>
<path transform="translate(842,791)" d="m0 0 5 1 7 14v2h-42l3-3z" fill="#524683"/>
<path transform="translate(458,532)" d="m0 0h12l5 2 5 6v7h-33v-5l7-8z" fill="#09080A"/>
<path transform="translate(926,731)" d="m0 0h7l6 3 2 2v4l-4-2-5-3-6 1-5 5-2 5 2 3 2-7h2l1-4v2l3 1 1 2h5v-5l2 1-1 10-3 1-1 3-6-1-1 3 2 3 5 2-1 2h-6l-8-5-2-7v-9l5-7z" fill="#2F2949"/>
<path transform="translate(1134,364)" d="m0 0 7 1 4 2 2 3 1 7-4 6-4 3h-6l-7-6-1-7 3-5z" fill="#252338"/>
<path transform="translate(570,332)" d="m0 0h1v15l-2 7h-11v18l-8-5-1-5h-27v-1h30l-3-5-1-7 9-5 5-2v2h7z" fill="#1E1E27"/>
<path transform="translate(1447,486)" d="m0 0h6l6 4 2 7-3 5-5 5h-7v-2h-2l2 4-5-2-6-9v-5l4-1v7l3 2v-2l4-2-4-3 1-5z" fill="#877FA2"/>
<path transform="translate(1978,529)" d="m0 0 4 1 3 2-1 5-4 2-2 4 4-1 4-6h1l-1 7-4 4h-2v2l-4 1h-8l-5-3-4-5v-4l4 1v-8h3l3 5 4 2v-3h3z" fill="#F3F3F3"/>
<path transform="translate(1917,425)" d="m0 0 5 1 5 6v3h7l4 4-2 5-5 5-7 3-7-1-4-3h2l1-6 3-5h4l-1-4-2-4-3-2z" fill="#17191F"/>
<path transform="translate(1429,244)" d="m0 0h2l1 6h2v3h-3l-1-4-2 1-2 6-5 4h-2v-4h-2v-2l-2 2v5l-7 5-9 3-3-1-2 5-5 3 2-4 2-3-4 3h-2l-1 5-4 1v-9l8-4 5-6 2 1-4 5 5-3h2v2h-2l2 2 1-2 7-2 4-2 1-4-9 6-3-1 6-5 14-7z" fill="#8F8BA8"/>
<path transform="translate(1612,573)" d="m0 0 4 2-4 2 1 4h9l1 1v6l-2 2-11 1-1 4-3 2-4-1-1 1 2 2-9 3-1 1h-6v4l-4-1-3-1v5h-2l-1-6 3-3 5-3 6 1 2 1 1-3 7-5 5 1 1-11 4-8z" fill="#191A23"/>
<path transform="translate(1838,36)" d="m0 0h2v3h-2l-1 3h-2l-2 4-3 5-10 5-1-2-2 3h-2v2l-3 2-7 2-4 3h-3l1-3h2v-2h3v-6l6-4 16-8 3-2 6-2z" fill="#646174"/>
<path transform="translate(1603,779)" d="m0 0 4 2v2l4-2 3 6v8h-1l-1-5-6 8-4 2v-2l3-2-4 2-3 3-6-1-5-6-2-3v-3h2l5 8 3 2 2-11-6-1 3-5 7 1 3 3h2z" fill="#9A63E0"/>
<path transform="translate(1530,633)" d="m0 0 4 4 1 2v7l-4 6-2-1 1-2-6 3v3h-6l-5-5-3-7h3l2 3 6-1-2-4-4-1-2-1 3-4 9 1 7 5-2-5z" fill="#8A82A2"/>
<path transform="translate(1877,17)" d="m0 0 5 2 1 6-10 4-6 4-1 2-4-1-5 4-4-1v-5l5-1v-2h-3l2-6 3-2 3 1-2 1-1 4h2l2-4 6-3z" fill="#5B547C"/>
<path transform="translate(1340,289)" d="m0 0h6l5 6 3 7v5l-1-3-3 3h-5l-9 5h-5-3l-1-4 9-1 1-3-2-7-8-1 2-4 6-1 4 1 4 8v5l3-1 2-5-5-6-3-2z" fill="#584B8D"/>
<path transform="translate(1988,571)" d="m0 0 4 1 1 9 1 4h2v2l3 1v3l3 1v6l-5 1 1-9h-2v-2l-4 1v7l-5-1-5-7v-10z" fill="#EEEEF0"/>
<path transform="translate(864,517)" d="m0 0 3 1-3 9-5 1-12 7-1-3-4-1v2h-2v2h4l-1 3h-7v-4l-8 2 4-4 10-3 5-4 1-2 7-4z" fill="#252335"/>
<path transform="translate(1942,470)" d="m0 0h8l8 4 1 4-5-2v8h-2l-2-7h-3l1 9-3-1-1-6h-3l2 7 1 4-5-1-2-3v-4h-2v5h-1v-10z" fill="#EFEFF0"/>
<path transform="translate(1657,186)" d="m0 0 3 1-1 5-11 6-3 2-5-1-6 2-1 3h3v2l-13 5-5 3h-2l1-7 11-6 7-3 13-6 7-3z" fill="#262438"/>
<path transform="translate(1554,431)" d="m0 0 3 1 1 10-1 3h-2l-1 4-4 3h-3v-2l2-1-2-1v-3l-7-2-1-1v-6l7-4 3 1 2 7 2-1z" fill="#1C1D26"/>
<path transform="translate(1457,232)" d="m0 0 6 2-1 5-3-1v-2h-2v5l-8 4h-2v-3h-2v4l-5 3h-2l-4-6 1-3 8-2v-4l4 1 9-2z" fill="#5A5867"/>
<path transform="translate(1637,212)" d="m0 0h2l2 6-16 9-19 9h-2v-5l22-12 4-1h2z" fill="#1C1B28"/>
<path transform="translate(1612,789)" d="m0 0h1v8l-4 5h-2v2l-4 2h-9l-6-4-4-4v-5l3-1 4 6 3 2 3-1 5-3 4-1-2 3 2-1z" fill="#E5E5E9"/>
<path transform="translate(1687,723)" d="m0 0 1 4 3 1h7l1 1v5l-4 3h-6l-1 6h-3l-1-3-4 2-4 4h-2l1-4 8-8 1-8h2z" fill="#191A22"/>
<path transform="translate(1846,88)" d="m0 0 4 1 2 1v3l-4 3-9 3-5 1v-2h3v-4l-3 3h-3l-1 4h3l-1 3-4-1v3l-5 3-4-1-1-7 10-4 8-5 9 2v-5z" fill="#89859E"/>
<path transform="translate(1820,228)" d="m0 0 4 1 2 6 2 4-2 6-5 1-6-2-3-6 2-6 3-3z" fill="#1A1B24"/>
<path transform="translate(827,538)" d="m0 0 6 2v-2h3l1 6h-4l-4 5-4 1 2-7-4 5h-4v2l-10 3-9-2-1-5 11 4-1-4 6 3v-7l5-2 2 6 3-6h2z" fill="#4A426C"/>
<path transform="translate(1862,320)" d="m0 0 6 2 6 12v8l-3 5h-3l-2 2 1-11-7-13 1-4z" fill="#87839C"/>
<path transform="translate(1703,724)" d="m0 0 4 1 2 5 4 2-4 6-2 4h-3l-1 1h-2l-2-5-4-2 3-2v-5l-3-2 5-2v2z" fill="#191A21"/>
<path transform="translate(1891,697)" d="m0 0 3 1 2 4-8 5h-4v2l-8 3-3 5-6 1-4-2v-5l3-2h3l1 4 2-1 1-5h6l1-3 4 1 3-4h3z" fill="#B2B0BE"/>
<path transform="translate(1787,60)" d="m0 0h4l3 10-1 1-8 1-2 3h-2v-6l-4 6-1 3-4 1v-2h-5l1-6 2-3h2v5h2l2-4h2v-2l5-1v2h2v-2h2z" fill="#D4D4D9"/>
<path transform="translate(1569,692)" d="m0 0 5 2 3 4-1 5-8 1-1 3-4-1-3-3-4-2 4-1 2-4z" fill="#694FA3"/>
<path transform="translate(1915,422)" d="m0 0h15l8 8v8l-4-2-7-1-4-7-4-4-6 1z" fill="#C1C2C7"/>
<path transform="translate(1347,655)" d="m0 0 5 1 1 4h-4-2l-2 4h-2v-4h-3l1 4-3-1v3h-2v2l-6 1v2h-4v-4l-4 2-1 3 4-2-2 4-4-2v-5l10-2 3-3h5l1-5z" fill="#918FA1"/>
<path transform="translate(2006,380)" d="m0 0h2l1 3 3 3v3l-9 4-11 4-7 5-7 1v-2h-2l1-5h3v5l8-4h2l-2-6 8 2v-2h2v-4l7-1z" fill="#A8A5BA"/>
<path transform="translate(1445,491)" d="m0 0 4 1 1 2h3l1 4-1 5-2 1v3h-5v-2h-2l2 4-5-2-6-9v-5l4-1v7l3 2v-2l4-2 1-3h-2z" fill="#7F7B97"/>
<path transform="translate(1133,366)" d="m0 0h6l4 6-1 5-7-1-1-4v6h7v4l-2 1h-7l-4-5v-7z" fill="#16171D"/>
<path transform="translate(1885,684)" d="m0 0 6 1 1 5-4-2h-3v5l-5 1-1-4-4 3v4l-7 4-5 3h-3v-6l3-4h3l1 3h4v-6l4-3h7l1-3z" fill="#9490AB"/>
<path transform="translate(1196,341)" d="m0 0h4v3l4 1-1 5-6-1-2 4-4 2h-4v-4l-4 2 1 4v3l-5-1v-8l6-1v-2h3l2 4h2v-4l-3-6z" fill="#5F5C71"/>
<path transform="translate(1532,634)" d="m0 0h4l3 5v9l-3 5-5 4-3 2h-10l4-4 2-1v-3l6-2 1 2 3-5v-7z" fill="#C4C5CA"/>
<path transform="translate(1496,546)" d="m0 0h3v4l3 1-1 4-9 5h-3v-2h-6l-1-4h5l-2-3 2-3 8-1z" fill="#69549B"/>
<path transform="translate(1625,573)" d="m0 0h4l-1 16h2l1 6-4 2-9-6 4-3v-6l-4-2h3v-3l-2-1z" fill="#181920"/>
<path transform="translate(1932,361)" d="m0 0h2v3h-2v5h2l1-3h3v-5h3v9h-2l-1 3-14 5h-2l-2-5v-4h4l2 3h3l-1-7h2z" fill="#B1AFBE"/>
<path transform="translate(1276,510)" d="m0 0h3l-1 5-7 6-7 4-4-2-4 1-1 2h5v2l-5 1v-2l-6 1-2-4h2v2l3-1 4-4 14-8z" fill="#28273A"/>
<path transform="translate(1889,664)" d="m0 0 9 1v5l-5 1-6 1-6 7-3 3-3 2h-3l-1-6 2-3h3v2h2l-1-4h4l2-4 4 1v-5z" fill="#4D4963"/>
<path transform="translate(1607,588)" d="m0 0h2v7l-3 2-4-1-1 1 2 2-9 3-1 1h-6v4l-4-1-3-1v5h-2l-1-6 3-3 5-3 6 1 2 1 1-3 7-5 5 1z" fill="#A9A6BA"/>
<path transform="translate(713,488)" d="m0 0h1l1 103 3 1 1 7-4 2-3-1z" fill="#17191E"/>
<path transform="translate(1228,530)" d="m0 0 7 1 1 7-4 7-6-2-5-5 1-4 3-3z" fill="#0B0A0E"/>
<path transform="translate(1969,521)" d="m0 0 9 1v2h2l-1 4-6-2 1 2 3 1-2 5h-3l-1 2-4-1-1-5h-3l1-7z" fill="#4E476E"/>
<path transform="translate(1799,512)" d="m0 0 5 1v2l-10 5-5 2v-2l-5 1v4l-5 2-1 1h-5v-5l5 2-2-4 1-1h6l-1-4 4-1 4 1 4-3z" fill="#3A384C"/>
<path transform="translate(1458,334)" d="m0 0h3v4h3v-2l3 1v3l-15 7-6 3h-2l-1-4h-4l1 7h-3v-6l4-4 4-2 3 1-3 1v4h2l1-3v2h2v-7l7-1 1 3h2l-1-3-2-1z" fill="#534880"/>
<path transform="translate(923,486)" d="m0 0 3 1-4 1v2l5-1 3 1 7-4h2l-1 3-17 8-3 2h-5l-3-8 7-1z" fill="#111018"/>
<path transform="translate(1471,555)" d="m0 0h10l1 4v3h6l-2 4-3 1-2-1-1 4-5-1-5-10z" fill="#645B8E"/>
<path transform="translate(1910,196)" d="m0 0 2 1-9 8-8 4-1 2-7 3h-3v2l-9 4h-2v-2h3v-3l7-3v-4l6 1-1-1 2-3 8-1v-2l9-4z" fill="#1E1D2B"/>
<path transform="translate(840,600)" d="m0 0h26l-3 3h-2l-2 4h-15l-5-5z" fill="#605886"/>
<path transform="translate(2023,437)" d="m0 0 5 1-1 3-7 2h-4l-1 4-9 4-3 3-5-1-1-3 1-2 5-2 4-4 2 2-2 4h2v-3l4-4 7-2z" fill="#B7B6C2"/>
<path transform="translate(789,299)" d="m0 0 4 2v3l-8 4-10 4-4 2-4-1 2-4 10-6z" fill="#584B8D"/>
<path transform="translate(925,738)" d="m0 0 1 2 3 1 1 2h5v-5l2 1-1 10-3 1-1 3-6-1-1 3-3-3v-8l1-2h2z" fill="#483F70"/>
<path transform="translate(1992,575)" d="m0 0 3 1-1 3 4 2 3 3v2h3l-6-8-2-2h5l4 5 4 11-3 1-3-1v6h-1l-1-6-2-1-1-3-2-1v-2h-2l-2-4z" fill="#15161C"/>
<path transform="translate(1857,327)" d="m0 0 3 1 2 7 4 4-1 4 1-1 1 3-2 4v-2l-6-1-2-2v-3h-2l-1-6 2-6z" fill="#21222C"/>
<path transform="translate(1583,224)" d="m0 0 3 1-10 10-6 4-6 3-3 1-1-6 3-3 14-6z" fill="#0D0C11"/>
<path transform="translate(947,785)" d="m0 0 1 3h4 2l6 9 1 3v8h-6l-6-16-2-3z" fill="#322B4E"/>
<path transform="translate(2045,546)" d="m0 0h3v9l-9 5-1-2h-3l-1 6h-3l-2-4-2-1 1 6-3 1v-9l4-1h3 2v-2h3v-2h3l2 2h3z" fill="#C3C3CB"/>
<path transform="translate(1881,255)" d="m0 0 4 1 5-1 1 3-3 2-5-1-1-1-1 6h-2l-1-2-8 7h-5l-1-5 4-4 4 3 1-4 4-1 1-2z" fill="#7A7690"/>
<path transform="translate(1891,126)" d="m0 0 5 2-2 1v2l4-1-1 3-4 1-8 4-6 2-4-2-1 5h-2l-1-6 5-1 2-4 5 2 1 1 3-5h2z" fill="#8884A0"/>
<path transform="translate(1090,589)" d="m0 0 4 2 5 5 7 3 20 1v1l-19 1-4 1-1 3-4-1-5-5-3-8z" fill="#61558F"/>
<path transform="translate(1990,453)" d="m0 0h2l2 8-3 1-1-3-4 3-6 2-10 8-2-1 1-3-2-5h3l3 2v-3l8-3 4-3z" fill="#A09EB1"/>
<path transform="translate(1502,511)" d="m0 0h5l3 3 1 4-6 1-2-1v6l-7 1-4-2 1-3 4-1 1-4z" fill="#17181F"/>
<path transform="translate(1860,21)" d="m0 0 3 1-2 1-1 4h2l2-4 6-2-1 5-6 2v3l3 1v3l-4-1-5 4-4-1v-5l5-1v-2h-3l2-6z" fill="#CCCCD4"/>
<path transform="translate(1784,703)" d="m0 0 4 2v5l-3 1v-2l-10 3v4l-7 2 1-2-2-1-1 5h-3v-5l5-4 8-4h7z" fill="#85809E"/>
<path transform="translate(1852,101)" d="m0 0h5l-1 3-7 6-7 1v2l-8 4h-6v-4l6-2 6-1 2-4 5-2 5-1z" fill="#242235"/>
<path transform="translate(1406,282)" d="m0 0 2 1-2 5-14 8-6 2-2-3 3-1-2-2 17-8z" fill="#14161B"/>
<path transform="translate(1857,714)" d="m0 0h3l2 4v3l-7-1-3 6-6 2-3 2h-3l-1-6h2l1-2 5-1 5-2v-2l4-1z" fill="#AFAFBB"/>
<path transform="translate(1721,734)" d="m0 0h3l1 6-5 4-6 2h-4v2l-5 1-3-4 5-1 10-7z" fill="#171621"/>
<path transform="translate(1827,711)" d="m0 0h4v3h2v-3h3l1 6-1 1h-5l-1-3h-2v6l-3 3h-6l-1-1v-6h3l1 4v-6l4-1z" fill="#7B788E"/>
<path transform="translate(1916,373)" d="m0 0h2l-2 6 2 1-1 5-6 3h-5l-4 1 1-3 3-1v-2l-2-2h2v-2z" fill="#D4D4D9"/>
<path transform="translate(1733,358)" d="m0 0 5 1 1 4-7-1-2 5-1 2h-6l-3 4h-4l-1-6 3-2 7-1 2-2h3v-2z" fill="#322E46"/>
<path transform="translate(1752,325)" d="m0 0 4 1 3 2 1 8-4 3-5-2-2-3v-3h-2l-1-3 2-2h2z" fill="#1C1C27"/>
<path transform="translate(0,791)" d="m0 0 2 1 3 6 7 6 5 3v1h-17z"/>
<path transform="translate(1445,261)" d="m0 0h2v2l8-2v2l-14 7-4 3-2-1v-2l-22 11-2-1 5-4 8-4 6-1v-2l13-5z" fill="#17181F"/>
<path transform="translate(1901,619)" d="m0 0 6 1 3 3 1 7-7 3-3-1-2-4v-6z" fill="#1E1E2B"/>
<path transform="translate(1826,472)" d="m0 0 6 1 3 3 1 4-2 4h-3l-1 2h-3l-3-5v-6z" fill="#1C1C28"/>
<path transform="translate(1600,441)" d="m0 0 2 1v2l3 1v2h-3l-1-2-1 3 1 2-12 5-2 2-4-1-2-5 3 1v2h4v-6l6-2 1-2h3v-2z" fill="#29283B"/>
<path transform="translate(679,344)" d="m0 0h8l2 2v8l-1 6h-1v-6l-7 2-2-1v-9z" fill="#17191E"/>
<path transform="translate(1915,239)" d="m0 0h2v3l5-1-3 3-11 6h-4v2l-5 2h-5l-2-3 5-4h3v2h2l1-4 5 1 1-5h3v3l3-2z" fill="#8B87A3"/>
<path transform="translate(853,520)" d="m0 0h2l-2 4-6 4-1 2 9-3 4-1v2l-12 7-1-3-4-1v2h-2v2h4l-1 3h-7v-4l-8 2 4-4 10-3 5-4 1-2z" fill="#433C61"/>
<path transform="translate(1838,152)" d="m0 0h3v4h5v2l-6 1v-2h-2l1 4-7 5-6 2h-4l-1-6h2v3h4l1-7h2l1 4h2v-5l4-1z" fill="#9D9AB0"/>
<path transform="translate(1746,721)" d="m0 0 3 1v3l3 1-4 4h-5l-1 3h-2l1-4h2v-2l-6 2-1 4v-2l-3 2v3l-4-1 1-5 7-3 4-2v-2z" fill="#54506C"/>
<path transform="translate(1530,633)" d="m0 0 4 4 1 2v7l-4 6-2-1 1-8-3-3-6-2v3h3l-1 7-2-1-1-5-2-2h-5l3-5 9 1 7 5-2-5z" fill="#7F7B97"/>
<path transform="translate(1691,379)" d="m0 0 4 1 1 1v5l-2-1v-2h-5l1 7-4-1-4 4h-3l-1-4h-2v-3l12-5h3z" fill="#918EA5"/>
<path transform="translate(1414,355)" d="m0 0 4 2 2 2v5l-10 3v-2l-2-1v2h-2l-1-8 5 1v-2z" fill="#464358"/>
<path transform="translate(1873,198)" d="m0 0 2 2 5-1 6-1-1 3-10 4h-3v5l-1-2h-6l-2 3h-3v-2l-4-2v-2l5 1 1 1 2-4 3-1 4 2z" fill="#9390A7"/>
<path transform="translate(0)" d="m0 0h16l-3 3-6 4-6 9h-1z"/>
<path transform="translate(1847,32)" d="m0 0h4l2 8-15 7-4 1 2-4 4-2 1-3h2l1-4z" fill="#706C8B"/>
<path transform="translate(1947,354)" d="m0 0h4l3 8v3l-3 2h-3v2h-4l-2-4 1-4 3-2z" fill="#4F4870"/>
<path transform="translate(1816,735)" d="m0 0 4 1v8l-6-1-1 4-4 2h-4l-1-7 5-1 1 2 1-6h3l1 3z" fill="#85819C"/>
<path transform="translate(553,357)" d="m0 0h2l2 2h1v13l-8-5-1-5h-27v-1h30z" fill="#252436"/>
<path transform="translate(1502,311)" d="m0 0h4l1 9-8 3-3-1v-2h3l1-2h-7l-1 3h-2v-3l-5 2 1-3 13-3z" fill="#171621"/>
<path transform="translate(1953,475)" d="m0 0 7 2 2 3v9l-2 6-1-2h-3v-9h-2z" fill="#767094"/>
<path transform="translate(1898,379)" d="m0 0 6 1v2l3 1-1 3-3 1-2 4-5-1-1 4-5 2 5-10h4v-2l-4-2z" fill="#E1E2E2"/>
<path transform="translate(1333,601)" d="m0 0 3 1 1 7-7 4-6-1-2-2v-3l5-2z" fill="#2B273B"/>
<path transform="translate(1963,536)" d="m0 0h1l1 5 3 2 7 1v2l-2 1 7 1-4 2h-8l-5-3-4-5v-4l4 1z" fill="#BABAC3"/>
<path transform="translate(1902,182)" d="m0 0h3l-1 4h-4v2h5l-1 2-14 4-6 1-2 3h-5l1-3h4v-2l3-2 8-1 5-5z" fill="#B1B0BF"/>
<path transform="translate(1766,526)" d="m0 0h2v7l-2 4h-2v3h-5l-2 1v-5h-2l1 5h-4l-2-5 4-2 1-3 2-2 2 6h4l1-4h2z" fill="#45464D"/>
<path transform="translate(2022,371)" d="m0 0h6l3 4-2 5-3 2-5-1-2-3v-5z" fill="#87849A"/>
<path transform="translate(1527,251)" d="m0 0h2l-1 5h3v-5h2l1 5-2 2-6 2-8 5-4-2v-4l6-2-1 3h-2v3l3-3 2-5z" fill="#37334C"/>
<path transform="translate(1429,244)" d="m0 0h2l1 6h2v3h-3l-1-4-2 1-2 6-5 4h-2v-4h-2l1-2 6-5-1-2z" fill="#62616D"/>
<path transform="translate(1812,104)" d="m0 0h3l1 7-5 4-6 2-3-5 1-4 4-1 3 1v-2h2z" fill="#938FA8"/>
<path transform="translate(1422,248)" d="m0 0 3 1-3 1-2 4-5 1v6l-7 5-7 2v-4l7-2 4-2 1-4-9 6-3-1 6-5 14-7z" fill="#AFAEBD"/>
<path transform="translate(2e3 570)" d="m0 0 6 1 4 5 1 10 2 1v5h-4l-3-11-2-5-3-3-4-2z" fill="#9A6CD5"/>
<path transform="translate(1970,400)" d="m0 0 3 1-1 7-5 3h-2l-2 3-4-1 1-5 5-5z" fill="#736D92"/>
<path transform="translate(1720,752)" d="m0 0h5l1 4h-7v3 2h-4v2l-6 2h-3l1-3h3v-5l4-1v-3h5z" fill="#47445B"/>
<path transform="translate(1973,526)" d="m0 0 6 1 2-1 5 5 2-2v10l-2-2-4 6-5 1 3-5 4-3 1-4-4-2-3-1-1 8-1-2h-3v3l-4-1 2-1v-6l1 4 3-1 2-4-4-1z" fill="#8B88A1"/>
<path transform="translate(1724,91)" d="m0 0h4l-1 3-2 1-1 4 5-3 2-3h3v4h2v3l-5-1-3 5h-4l-4-6 1-4z" fill="#D4D3DA"/>
<path transform="translate(1853,685)" d="m0 0h2l-1 6h-3v2l-7 1-1 3h-5v-5l3-1 1-3h7v2h2l1-4z" fill="#938FA6"/>
<path transform="translate(1947,477)" d="m0 0h3l2 7h2l-1 4h-2l-1 2-6-1-3-4v-6h3l2 6 2 1z" fill="#4E486A"/>
<path transform="translate(1340,289)" d="m0 0h6l5 6 3 7v5l-1-3-3 3-5-1 3-7-5-6-3-2z" fill="#5C508E"/>
<path transform="translate(1647,588)" d="m0 0 7 1 1 4h-8l-3 4h-2l-1 3h-3-2l-3-4v-2h4v3l4-2-3-1 2-3h3l1 2 1-4z" fill="#5E5A76"/>
<path transform="translate(1097)" d="m0 0h18v2l-7 1-5 4h-4v2l-5 3 1-4z" fill="#413F4D"/>
<path transform="translate(1820,228)" d="m0 0 4 1v2l-6 2v6l6 1-1 4-6-1-5-5 2-6 3-3z" fill="#584B8D"/>
<path transform="translate(1673,574)" d="m0 0h2v5l-2 2h-3l-1 4h-2v-2h-2v3h-2v2l-4 1 2-4h-2v2h-3l1-5h2v2l4-1 1-3h2l1-3 4-1z" fill="#6A6A73"/>
<path transform="translate(1497,575)" d="m0 0h5l-1 3-6 3-10 6-7 1-1-3 7-2 4-4z" fill="#242333"/>
<path transform="translate(1766,727)" d="m0 0h3l2 6-7 3-4 1-3-1-1 3-7 2v-4h4l4-7h2v3l5-1z" fill="#A5A2B4"/>
<path transform="translate(1426,324)" d="m0 0h3v2l-17 8-9 3-5 3-1 2h-4v-2l14-9 8-1v-2l9-2z" fill="#514976"/>
<path transform="translate(1612,789)" d="m0 0h1v8l-1 2-7 4h-7l-4-2 7-4 2-2 3 1-4 2h3z" fill="#DBDDDC"/>
<path transform="translate(1938,228)" d="m0 0h4l1 5-7 1v2l-6 2-6 3h-2v-3l6-2 2-3-1-4h2l1 2 5-2z" fill="#9F9CB1"/>
<path transform="translate(1657,128)" d="m0 0 4 1v3l-9 3-10 5-2-2 2-3 5 1-2-4 3-2z" fill="#6A6190"/>
<path transform="translate(553,99)" d="m0 0 3 1-10 6-16 8-19 10h-2v-2l39-20z" fill="#51467C"/>
<path transform="translate(1552,701)" d="m0 0h4l1 6 3 1 3 3v2l-4-1-3-1-2-5-2-1 2 5h-2l-1 3-6-5v-3l4 1 2 1-1-5z" fill="#827C9C"/>
<path transform="translate(834,533)" d="m0 0 3 1-1 4h-3v2l-6-2v2h-2l-1 5-3 2-1-6 2-4 6-2z" fill="#121218"/>
<path transform="translate(1933,479)" d="m0 0 2 3h2l3 7 4 6-1 2-2-2h-4-2l-3-8z" fill="#817D97"/>
<path transform="translate(1808,52)" d="m0 0h5l-3 3-2 1-1 3 8-5h2v3h-2v2l-3 2-7 2-4 3h-3l1-3h2v-2h3v-6z" fill="#D4D4DA"/>
<path transform="translate(1660,597)" d="m0 0 1 4-5 6-9 5-5-1v-6l5-1-1 6 4-4h2l1-5 5-1z" fill="#8681A0"/>
<path transform="translate(1884,146)" d="m0 0h2l-1 4-4 4h-3l-1 3h-5v2h-3l-1 3-4-3 1-3 3 1 1-2h4v-2l8-4z" fill="#383355"/>
<path transform="translate(805,755)" d="m0 0h5l-1 3-12 7-5-1v-3l9-5z" fill="#584B8D"/>
<path transform="translate(971,717)" d="m0 0 3 1-10 7-8 4-5-1 2-6 7-1v2l7-2v-2h4z" fill="#2D2B39"/>
<path transform="translate(1566,612)" d="m0 0 3 1v3l-9 2-7 4-4 2-1 2-4-1v-3h4l1-3 5 1 1-3 4-1 1-3z" fill="#B4B4BF"/>
<path transform="translate(698,604)" d="m0 0h3v2h-2v2l-6 3-3 2h-3v2h-3l-1-6 7-4h2l2 2z" fill="#1B1B25"/>
<path transform="translate(1104,534)" d="m0 0h13v1l-9 1-6 5-6 1-2 4-3 4 1-6 6-8z" fill="#504579"/>
<path transform="translate(1714,572)" d="m0 0 3 1v2l3 1-3 1-1 2v-2h-5l-1 4-9 1v-5l7-2z" fill="#16181C"/>
<path transform="translate(1838,281)" d="m0 0 6 1v2l5 1v3l-5 1-3-2v5l-5-1 1-9z" fill="#EFE9F7"/>
<path transform="translate(1517,468)" d="m0 0h3v5h-4l-3 5-1 1h-5l-1-5 3-1v-2h5v-2z" fill="#8B899A"/>
<path transform="translate(1800,53)" d="m0 0 1 3h3v5h-3v2l-5 2-1 2-1-1v-8z" fill="#2B283A"/>
<path transform="translate(1854,700)" d="m0 0h2v5l-4 3h-6v5l-4-1v-2l-3 1-1-3 7-2 1-3 5 1 2 1z" fill="#9F9CB1"/>
<path transform="translate(1955,410)" d="m0 0h2v5l-4 2-2-1-1 3-6 1-1 3-1-1v-9l8 2 1-3z" fill="#807B9B"/>
<path transform="translate(1756,129)" d="m0 0 1 3 4 2 2 6 5-3 2-3h2l-1 4-3 4h-6l-5-5-3-2-1 3 1-5z" fill="#848299"/>
<path transform="translate(1114,12)" d="m0 0h3l-1 5h-5l-1 3-7 4-2 3-3-1 3-1-1-2-3-1 1-6h3v4l6-2 2-2h3z" fill="#39384A"/>
<path transform="translate(2047,487)" d="m0 0 1 4-4 1-2 4-6-1-1 5h-3l-1-6 14-6z" fill="#ACA8BE"/>
<path transform="translate(1483,483)" d="m0 0 7 1v5l-1 1h-8v3h-4l-3-4 1-3h2v3l3-2v-3z" fill="#6C6A7C"/>
<path transform="translate(1160,6)" d="m0 0 3 1v2h2l-1 3-7 1-1 4-4 2 1-8 1-4z" fill="#1D1D2A"/>
<path transform="translate(964,466)" d="m0 0 4 1 2 2-1 4h-3l-1-4-4 1v2l-3 1-6 8-6 5h-2v-2l7-5 5-9 5-2z" fill="#9D9BAD"/>
<path transform="translate(1601,776)" d="m0 0 5 1 4 3-1 3h-2l-3-3 3 6-5-1-1-3-6-2v-3z" fill="#DFE0E0"/>
<path transform="translate(1571,455)" d="m0 0h8l1 6-4-1-1 3-5 1v2h-2l-1-4 2-4h2z" fill="#555464"/>
<path transform="translate(2006,380)" d="m0 0h2l1 3 3 3v3l-10 4-2-4-1 4h-3v-2h2v-4l7-1z" fill="#333146"/>
<path transform="translate(1823,99)" d="m0 0h4v3l2 1-1 3-5 3-4-1-1-7z" fill="#4B475F"/>
<path transform="translate(1741,539)" d="m0 0h7l-2 5h-5l-1 3-4 1-1 3h-4l1-5v-3l5 1v-3h3z" fill="#6E698B"/>
<path transform="translate(1133,366)" d="m0 0h6l4 6-1 5-7-1v-6l-3-1z" fill="#0A0A0C"/>
<path transform="translate(608,327)" d="m0 0h5l-2 2-12 3-1 21h-1v-21h-26v-1l26-1z" fill="#35314F"/>
<path transform="translate(1405,319)" d="m0 0 3 1-4 3-13 6h-4l-2-4 5-3h9z" fill="#36334A"/>
<path transform="translate(1343,280)" d="m0 0h6l8 6 6 9v5l-2-3-3-4-3-1-5-7-7-4z" fill="#B0B0BA"/>
<path transform="translate(919,749)" d="m0 0h3l3 7 5 3 2 2-1 1h-6l-8-5-1-4 3 2z" fill="#2C2744"/>
<path transform="translate(1457,418)" d="m0 0 4 2v3l-6 1v2l-7 3-1 2h-3v-3h3l1-5 7-3z" fill="#625B86"/>
<path transform="translate(1877,389)" d="m0 0h5l-3 3-2 1-1 3h7v5l-1 1h-6l-3-5 1-5z" fill="#EAEAEC"/>
<path transform="translate(1637,212)" d="m0 0h2l2 6-16 9-4 2-3-1 9-5h2v-3l7-6z" fill="#3A3458"/>
<path transform="translate(1634,759)" d="m0 0h3l2 6h-4-4l-2 4-9 2 1-4 8-3z" fill="#9793AC"/>
<path transform="translate(1556,701)" d="m0 0 6 2 2 3h3l1-2 7-1-2 4h-2l-1 3-3 1-1-2-6 1-4-5z" fill="#1F1E2C"/>
<path transform="translate(1607,588)" d="m0 0h2v7l-3 2-4-1-1 1 2 2-10 3-1-2 5-5 4-3 5 1z" fill="#8681A0"/>
<path transform="translate(1866,709)" d="m0 0h3l1 4 3-2 3 1-3 5-6 1-4-2v-5z" fill="#595866"/>
<path transform="translate(1889,664)" d="m0 0 9 1v5l-5 1-6 1-1 2h-2v-3l-2-1 2-1 3 1v-5z" fill="#1F1E2C"/>
<path transform="translate(1835,726)" d="m0 0h3l-1 5h-3v5h-4v-3h-2l-1 4h-3l1-5z" fill="#B2B0BF"/>
<path transform="translate(1696,720)" d="m0 0 4 2-2 3 1 2-10 2-2-2 2-6z" fill="#15171C"/>
<path transform="translate(1991,583)" d="m0 0 3 3 2-1v2l3 1v3l3 1v6l-5 1 1-9h-2v-2l-4 1v5l-2-4v-6z" fill="#7A55BA"/>
<path transform="translate(1860,160)" d="m0 0h3l-2 5-7 2-4 4h-3l1-3h2v-2h-3v-3l9-1 3 2z" fill="#242334"/>
<path transform="translate(1838,36)" d="m0 0h2v3h-2l-1 3h-2l-2 4-3 5-6 3-3 1v-3l6-5 3-1 2-5z" fill="#D7D6DC"/>
<path transform="translate(1691,784)" d="m0 0h2v4l-5 2-7 4-3 3-2-2h-4l1-4h5v2l2-1 1-4 10-2z" fill="#8F8CA4"/>
<path transform="translate(1376,272)" d="m0 0h3l-1 9-9 4h-2v-3l5-5 2-4z" fill="#B8B7C2"/>
<path transform="translate(1796,113)" d="m0 0h5v6l-6 1v2l-4-1-3-2v-2h4v-2z" fill="#CBCBD3"/>
<path transform="translate(1871,691)" d="m0 0h1v6l2 1-10 5-4 1v-6l3-4h3l1 3h4z" fill="#807B96"/>
<path transform="translate(1799,695)" d="m0 0h3v3h3v2l-6 2-3 2-4-1-3-3 4-2h2z" fill="#87849B"/>
<path transform="translate(1347,655)" d="m0 0 5 1 1 4h-4-2l-2 4h-2v-4l-5 2v-5z" fill="#9392A3"/>
<path transform="translate(1532,534)" d="m0 0h2v2l-8 3h-2v2h-3v2l-7 3-3 2h-3l-1-5 3 1 4-1v-2l16-6z" fill="#222031"/>
<path transform="translate(1622,450)" d="m0 0h6l1 3-3 3-6 2-3-2-1-4z" fill="#17191E"/>
<path transform="translate(1511,487)" d="m0 0h7v5l-3-1-1 3-5 2-3-1-1-5 5-2z" fill="#34314A"/>
<path transform="translate(1606,608)" d="m0 0h5l1 5-6 3h-5l-2-4h3l1-3z" fill="#8884A2"/>
<path transform="translate(1610,781)" d="m0 0 3 3 1 3v8h-1l-1-5-6 8-4 2v-2l4-3 1-6h2l-1-6z" fill="#A8A7B5"/>
<path transform="translate(1788,733)" d="m0 0 5 1 1 5h-7l-2 4-4-1 1-5z" fill="#797887"/>
<path transform="translate(1481,562)" d="m0 0h7l-2 4-3 1-2-1-1 4-5-1-1-5z" fill="#4A4664"/>
<path transform="translate(1222,419)" d="m0 0 4 1v1l-6 2-1 5h-2v-4l-6 3-4 4-5-1v-4h2l1 2 4-2 5-4z" fill="#413965"/>
<path transform="translate(1583,224)" d="m0 0 3 1-5 5-3 4-2-1 1-2-10 4-7 4 2-4 16-8z" fill="#534B74"/>
<path transform="translate(1481,218)" d="m0 0h2v2l-3 2-3 5h-5l1 6-4 2h-3l1-3h3v-7l7-3z" fill="#B5B4C1"/>
<path transform="translate(1693,728)" d="m0 0h5l1 1v5l-4 3h-4l-1-5z" fill="#848199"/>
<path transform="translate(1521,638)" d="m0 0 6 1 4 4v5l-5 1-2-4v-4h-3z" fill="#A85FFC"/>
<path transform="translate(1940,471)" d="m0 0 2 1-7 8h3v2h2l1-3 2 7 1 4-5-1-2-3v-4h-2v5h-1v-10z" fill="#DCDEDE"/>
<path transform="translate(1542,434)" d="m0 0h5l1 1v7l-6 1-2-2v-5z" fill="#88869A"/>
<path transform="translate(1708,370)" d="m0 0 3 1v2h2v6h-10l1-5 3-1z" fill="#656179"/>
<path transform="translate(1833,675)" d="m0 0 5 1 4 3-2 4-6 1v-2h-2v-6z" fill="#4C495F"/>
<path transform="translate(1898,308)" d="m0 0h3l3 5v2l-5 1-1 1h-7l-4-3v-2h5l2 3 5-1z" fill="#A7A3B9"/>
<path transform="translate(1755,750)" d="m0 0h4v2l3 1-1 3-6 3h-5l-1-6h4l1 3h2z" fill="#9591A9"/>
<path transform="translate(1823,698)" d="m0 0h3l1 10-4 1-4-6 1-3z" fill="#7B7597"/>
<path transform="translate(833,538)" d="m0 0h3l1 6h-4l-4 5-4 1 3-9h2l1-2 2 1z" fill="#2F2C45"/>
<path transform="translate(1228,530)" d="m0 0 7 1 1 7-4 7-3-1 3-3 1-8h-6l-3 2 1 4v3l-4-4 1-4 3-3z" fill="#746E90"/>
<path transform="translate(2e3 511)" d="m0 0h7l2 1-1 4-7 3-2 2h-3v-2l5-3h2l-1-3h-2v3h-4l1-4z" fill="#BFBEC8"/>
<path transform="translate(923,486)" d="m0 0 3 1-4 2-7 6 6 1-3 3h-5l-3-8 7-1z" fill="#45425A"/>
<path transform="translate(1458,334)" d="m0 0h3v4h3v-2l3 1v3l-15 7v-3l4-1v-2h4l-1-3-2-1z" fill="#635D80"/>
<path transform="translate(1540,293)" d="m0 0 4 2-1 4-9 6v-3l2-2-1-5z" fill="#6C658D"/>
<path transform="translate(1702,293)" d="m0 0h6v2h2v2l-8 6h-4l-2-7h2l2 3h3z" fill="#6E6791"/>
<path transform="translate(1592,237)" d="m0 0h3v3l2 1-5 4h-2v-3l-2 1-3 6h-1v-6z" fill="#4F4B64"/>
<path transform="translate(1811,230)" d="m0 0h5l-3 6v4l-7-2 1-7z" fill="#181920"/>
<path transform="translate(1792,715)" d="m0 0h2v6l-4 2-2-1v4l-4-1v-5z" fill="#9996AC"/>
<path transform="translate(1651,684)" d="m0 0h5v2l-7 2-9 6-4-1-3-2v-2l5 1 2 1v-2z" fill="#1E1E2B"/>
<path transform="translate(1509,643)" d="m0 0 3 3 3 6 7 3-1 3h-5l-7-8z" fill="#D5D6D7"/>
<path transform="translate(1247,578)" d="m0 0h2v11l1 2h7l2-2-3-2v-2l5-2 1 7-4 3h-9l-2-3z" fill="#4F4A68"/>
<path transform="translate(1986,536)" d="m0 0h1l-1 7-6 5h-7l-1-2h3l1-3 6-1z" fill="#D5D7D7"/>
<path transform="translate(1265,516)" d="m0 0 3 1-6 4-2 2-4 1-1 2h5v2l-5 1v-2l-6 1-2-4h2v2l3-1 4-4z" fill="#5E577D"/>
<path transform="translate(1551,468)" d="m0 0h2l-1 5-3 3-4-2-4 2 1 4h-3l-2-8 4 1v-2l9-1z" fill="#918CAA"/>
<path transform="translate(479,433)" d="m0 0 5 2 8 3-4 1v2l-8 2-1-3z" fill="#2B2B39"/>
<path transform="translate(1443,234)" d="m0 0 4 1 8-1-2 3h-6v2l-10 5-3-1 1-3 8-2z" fill="#AFADBD"/>
<path transform="translate(1607,148)" d="m0 0h3l1 9-7 2v-6-3z" fill="#1B1C26"/>
<path transform="translate(1902,692)" d="m0 0 4 1 2 1v3l-8 4h-4l-1-6h4l1 2h2z" fill="#B2AFC2"/>
<path transform="translate(1595,613)" d="m0 0 3 1 1 5h-11l2 4v3h-2l-3-4v-3l9-5z" fill="#A3A0B4"/>
<path transform="translate(1619,601)" d="m0 0 5 1 2 1-1 4h-3l-1-3-2 6h-2l-3-5v-3z" fill="#76718D"/>
<path transform="translate(1351,593)" d="m0 0 4 2v4l-6-2-4 2-1 2h-3v2l-4-1v-2h4l2-4z" fill="#59527B"/>
<path transform="translate(2045,546)" d="m0 0h3v9l-9 5-1-2-2-1 4-5 2 2h3z" fill="#81808E"/>
<path transform="translate(1499,516)" d="m0 0 3 1v6l-2 2-6-1-2-1 1-3 4-1v-2z" fill="#7C7797"/>
<path transform="translate(1879,655)" d="m0 0 5 1-2 4-1 1h-6l-2 4h-3v-5h2v-2l3-1 2 2z" fill="#9B97AE"/>
<path transform="translate(1272,629)" d="m0 0 6 1v7l6-3 2-2-1 4-3 3-9 2 3-10-6 1v-2z" fill="#4B4371"/>
<path transform="translate(1991,573)" d="m0 0h7l3 3-3 1 7 9-2 1-5-5-4-3v-3l-2-1-1 2z" fill="#7B7595"/>
<path transform="translate(1486,549)" d="m0 0h3l1 3 2 1 1 5-1 2h-3v-2h-6l-1-4h5l-2-3z" fill="#8560C0"/>
<path transform="translate(1833,275)" d="m0 0h2v16h-3v-2h-2v-10z" fill="#975CE2"/>
<path transform="translate(1926,233)" d="m0 0h5l-2 1-1 3-6 1v3l-5 1v-3l-2-1 4-4h3l1 2h2z" fill="#272438"/>
<path transform="translate(1657,186)" d="m0 0 3 1-1 5-10 5-2-1 1-4 7-3z" fill="#453C6E"/>
<path transform="translate(1784,752)" d="m0 0h4l1 5 2 1-7 4-3-1 1-8z" fill="#8B88A1"/>
<path transform="translate(918,737)" d="m0 0 1 4 1 16-4-4-1-3v-9z" fill="#56498A"/>
<path transform="translate(1572,664)" d="m0 0h6l-1 7-2 1-7-2 1-4h3z" fill="#6F6891"/>
<path transform="translate(1620,617)" d="m0 0 3 1 3 5-1 3h-5v-2h-4l-1-3 4-2z" fill="#706C86"/>
<path transform="translate(1618,581)" d="m0 0 5 1v6l-2 2h-4l-2-4 1-4z" fill="#848199"/>
<path transform="translate(1481,468)" d="m0 0h3l1 5-6 2-5 3-7 1v-2l6-1 1-3 6-1z" fill="#A5A3B6"/>
<path transform="translate(1579,651)" d="m0 0h3l2 5 1 4-7-3-1 2v-3l-4 1v-3z" fill="#17191E"/>
<path transform="translate(842,529)" d="m0 0h3v2h-3v2h-2v2h4l-1 3h-7v-4l-8 2 4-4z" fill="#53497C"/>
<path transform="translate(1733,358)" d="m0 0 5 1 1 4-7-1-2 5h-4l1-5h3v-2z" fill="#918F9F"/>
<path transform="translate(1405,358)" d="m0 0h3l2 3 2-3 3 4v2l3 1-8 2v-2l-2-1v2h-2z" fill="#68618A"/>
<path transform="translate(1610,211)" d="m0 0h3l-1 5-5 4h-3l-1-6z" fill="#3A3459"/>
<path transform="translate(1629,612)" d="m0 0h5v6l-5 2-5-4 1-3z" fill="#44405A"/>
<path transform="translate(1994,588)" d="m0 0h2v2h2l-1 8h-7l-1-2h3v-7z" fill="#21212D"/>
<path transform="translate(1897,247)" d="m0 0h3v2h3l1-2 2 3h-2v2l-5 2h-5l-2-3z" fill="#D8D9DC"/>
<path transform="translate(1445,239)" d="m0 0h2l-2 7-5 3h-2l-2-5 5-3z" fill="#69667B"/>
<path transform="translate(1891,126)" d="m0 0 5 2-2 1v2l4-1-1 3-8 2v-2h-3l1-3h2z" fill="#6A628F"/>
<path transform="translate(1687,801)" d="m0 0 3 1 1 6h-12l1-3h4v-2z" fill="#5C5875"/>
<path transform="translate(1954,354)" d="m0 0h5l4 5-4 4-3-1-2-4z" fill="#E3E3E6"/>
<path transform="translate(1595,351)" d="m0 0h2l-1 4-4 1-2-1v2l-4 3h-3l-2-3v-3l4 1v2h2v-4l7 1z" fill="#8782A2"/>
<path transform="translate(1553,287)" d="m0 0 2 1-5 10h-2l-3-5v-3z" fill="#595474"/>
<path transform="translate(1629,139)" d="m0 0h2v7h-2l-1 3-4-1-1-1v-5z" fill="#666086"/>
<path transform="translate(713,590)" d="m0 0 5 2 1 7-4 2-3-1z" fill="#1B1C26"/>
<path transform="translate(2026,573)" d="m0 0 4 1v7l-4 2v-2h-2l-1-6z" fill="#383350"/>
<path transform="translate(1500,457)" d="m0 0 3 1-1 6-7 3h-3v-5l7-1z" fill="#AAA9B8"/>
<path transform="translate(1379,294)" d="m0 0v3h2l2 4-5 4-2-1-3-5 1-3z" fill="#17181E"/>
<path transform="translate(1837,110)" d="m0 0 5 2-4 3-4 2h-6v-4l6-2z" fill="#2A273F"/>
<path transform="translate(1869,21)" d="m0 0 1 4-5 3h-2v3l3 1v3l-4-1-2-6h2l1-4z" fill="#D6D6DA"/>
<path transform="translate(905,688)" d="m0 0 2 1v2l-7 1v5l4 3 3 1v2l-7-1-3-4v-5z" fill="#342D52"/>
<path transform="translate(1315,610)" d="m0 0h5v7l-2 1-2-4-5 5-1 3h-2l2-8 5-2z" fill="#4C4767"/>
<path transform="translate(2023,437)" d="m0 0 5 1-1 3-7 2h-4l-1 3v-2l-3-1 1-2 7-2z" fill="#ABA9BA"/>
<path transform="translate(1471,412)" d="m0 0h2v6h-3l-1 2-4 1-1-6 4-2z" fill="#413D5C"/>
<path transform="translate(1752,327)" d="m0 0 4 2 2 2v5l-4 1-4-5v-4z" fill="#7C7897"/>
<path transform="translate(1507,279)" d="m0 0h6l1 5-5 3h-3l-1-3z" fill="#343145"/>
<path transform="translate(1646,193)" d="m0 0 2 1-1 5-6 1h-4l-5 1 3-3z" fill="#2D2846"/>
<path transform="translate(1680,737)" d="m0 0h6l1 1v5h-2l-1-3-4 2-4 4h-2l1-4z" fill="#8D89A3"/>
<path transform="translate(1770,723)" d="m0 0h4v5l3-1 1-4 4 1-1 5-5 2h-3v-4l-3-1z" fill="#9592A9"/>
<path transform="translate(1807,707)" d="m0 0 5 1 1 5-6-3 1 6-5 1 1-5z" fill="#9996AB"/>
<path transform="translate(1784,703)" d="m0 0 4 2v5l-3 1v-2l-9 1v-3h7z" fill="#A6A3B6"/>
<path transform="translate(1669,591)" d="m0 0h4v2l-3 2 1 1h2l-1 4-6 1-1-1v-6h3z" fill="#6F6B88"/>
<path transform="translate(1992,575)" d="m0 0 3 1-1 3 4 2 3 4-3 3-2-1v-2h-2l-2-4z" fill="#252433"/>
<path transform="translate(1686,566)" d="m0 0 4 1 2-1 4 2v2l-8 2-3-3v2h2v3h-3l-1-6z" fill="#7C769B"/>
<path transform="translate(1974,520)" d="m0 0 7 1 6 7-1 4-5-4-1-4h-2v-2z" fill="#CDCFD0"/>
<path transform="translate(1968,462)" d="m0 0 5 4v-4l7 1-5 5-5 4-2-1 1-3-2-5z" fill="#8F8BA5"/>
<path transform="translate(1316,299)" d="m0 0h1l4 16 6 7 2 1v2l-4-2-7-8-2-5z" fill="#BFBFC6"/>
<path transform="translate(1502,311)" d="m0 0 3 1-5 5-7 1-1 3h-2v-3l-5 2 1-3 13-3z" fill="#645D87"/>
<path transform="translate(1912,300)" d="m0 0 3 1v6l-9 2-2-4 7-1z" fill="#9492A4"/>
<path transform="translate(1411,256)" d="m0 0h2l-1 5-6 3h-5l-1 3-2-1v-2h2l1-3 4-1z" fill="#171421"/>
<path transform="translate(1213,803)" d="m0 0 2 1 4-1-2 3h-2v2h-14l2-3 5-1 5 1z" fill="#89879B"/>
<path transform="translate(1857,714)" d="m0 0h3l2 4v3l-7-1-2 2-5-1 4-2v-2l4-1z" fill="#8985A0"/>
<path transform="translate(1561,697)" d="m0 0 3 1 3 5v4l-4-1-3-3-4-2 4-1z" fill="#9778C7"/>
<path transform="translate(1902,622)" d="m0 0 5 1 1 1v6h-5l-3-4v-3z" fill="#817D98"/>
<path transform="translate(845,577)" d="m0 0 1 2-2 2-4 5-3 10h-2v-6l5-10z" fill="#7D7799"/>
<path transform="translate(1777,520)" d="m0 0h5l2 2v3l-5 2-1 1h-5v-5l5 2-2-4z" fill="#B2B2BC"/>
<path transform="translate(1799,512)" d="m0 0 5 1v2l-9 4-3-1v-4z" fill="#BEBDC9"/>
<path transform="translate(1906,379)" d="m0 0 4 2 4 5-3 2h-5l-4 1 1-3 3-1v-2l-2-2h2z" fill="#6D688A"/>
<path transform="translate(1432,268)" d="m0 0h3l-1 3-13 6-8 4-2-1 5-4 8-4 6-1v-2z" fill="#212030"/>
<path transform="translate(1847,211)" d="m0 0h2l3 5-5 2-2 2-5-1-2-1v-4h3v4l5-4z" fill="#C1C0CA"/>
<path transform="translate(1868,139)" d="m0 0h2v4h2l-1 3h-2v-2l-5 5-4-1v-2h2l1-3h3z" fill="#86839C"/>
<path transform="translate(1628,779)" d="m0 0h2l1 7-2 3-3-1-3-4 1-3z" fill="#514E65"/>
<path transform="translate(1516,635)" d="m0 0 5 1 2 2h-2v3h3l-1 7-2-1-1-5-2-2h-5z" fill="#706893"/>
<path transform="translate(1678,402)" d="m0 0h3l1 4h2v2l-7-1v5l-3-1-2-5 6-1z" fill="#9796A5"/>
<path transform="translate(1527,297)" d="m0 0 4 2-1 5-5 6-5 1-1-5 2-1v4l4-4 3-1z" fill="#6F6794"/>
<path transform="translate(1770,68)" d="m0 0h2v5h2l1-3 1 2-1 2h-2v3l2 1-3 1v-2h-5l1-6z" fill="#767389"/>
<path transform="translate(1829,41)" d="m0 0 3 1-2 5-5 2-2 3h-2l1 4h-2l-3-4 4-2 5-6z" fill="#524F67"/>
<path transform="translate(1653,769)" d="m0 0h3l1 5-4 2v-3h-2v5l-4-2-1-4 5-1z" fill="#827F99"/>
<path transform="translate(1757,736)" d="m0 0 3 1h-2l-1 4-3-1v3l2 1-4 2-1-3-5 1v-2h-2v-2l5-1h4l3-1z" fill="#232330"/>
<path transform="translate(1741,724)" d="m0 0h2v3l-6 2-1 4v-2l-3 2v3l-4-1 1-5 7-3z" fill="#9794AB"/>
<path transform="translate(1357,317)" d="m0 0v3l-4 4-6 3h-13l1-2h8l4-2 2 1v-2l6-3z" fill="#C3C4C9"/>
<path transform="translate(1563,253)" d="m0 0h3v3l-6 3-4 3h-2l-2-5 5 1 1-3z" fill="#6C658C"/>
<path transform="translate(1821,175)" d="m0 0h3l1 3 4-3 2 4h-2v2l-6 1-1-2h-3z" fill="#1A1B24"/>
<path transform="translate(2022,130)" d="m0 0 4 1-5 5-5 3h-4l2-4z" fill="#D4D6D5"/>
<path transform="translate(1806,107)" d="m0 0 2 1 1 6 2 1-6 2-3-5 1-4z" fill="#696873"/>
<path transform="translate(1646,753)" d="m0 0h3v4h2v2h-5l-2 3h-4l-2-4 7-1z" fill="#AFADBD"/>
<path transform="translate(1655,749)" d="m0 0h9v3h-9l-1 5h-2l-1-6h4z" fill="#918EA4"/>
<path transform="translate(1805,723)" d="m0 0h7v7l-2-1-1-2-3-1 1 7h-2l-2-4 1-4z" fill="#7C7798"/>
<path transform="translate(997,702)" d="m0 0 4 1 1 4h-2v-3l-4 2-4 7-1-2-6-1 3-3 4 1 2-4z" fill="#7D7898"/>
<path transform="translate(924,607)" d="m0 0h1v8l-6 4-5-5-1-2 4 2 1 1 2-3 1 2h2l-2-2z" fill="#37344B"/>
<path transform="translate(1647,588)" d="m0 0 7 1 1 4h-8l-2 3-3-1 2-2 1-4z" fill="#847F9F"/>
<path transform="translate(1439,492)" d="m0 0 8 4-2 3h-3v2l-4-2v-6z" fill="#DADCDB"/>
<path transform="translate(1948,354)" d="m0 0h3l3 8v3l-6 1 2-6h-2z" fill="#E1E1E5"/>
<path transform="translate(1185,348)" d="m0 0 3 1-3 3-2 1 1 4v3l-5-1v-8l6-1z" fill="#AEADBB"/>
<path transform="translate(1873,332)" d="m0 0 2 1 1 14-4 2h-5l2-4v2l2-1 2-4z" fill="#C9CACD"/>
<path transform="translate(1849,277)" d="m0 0 5 1 2 2v5l-4 1-1-2 1-4-2 3h-3l1-5z" fill="#D9CFE7"/>
<path transform="translate(1518,257)" d="m0 0h2l-1 3h-2v3l3-3 6-3 3 1-11 7-4-2v-4z" fill="#696190"/>
<path transform="translate(1479,222)" d="m0 0 3 4v3l-9 4-1-6 6-2z" fill="#343047"/>
<path transform="translate(1720,752)" d="m0 0h5l1 4h-7v3 2h-3l-1-8z" fill="#9490AA"/>
<path transform="translate(1734,745)" d="m0 0 3 1v5l-9 2-1-5 5-1 1 2z" fill="#948FAA"/>
<path transform="translate(1641,662)" d="m0 0h7v2l-9 2v2l-3 2h-3l1-4z" fill="#29263E"/>
<path transform="translate(1826,475)" d="m0 0h5l2 2-1 6h-4l-3-7z" fill="#817D98"/>
<path transform="translate(1978,414)" d="m0 0 1 2h2l-2 4-6 3h-3v-6l3-1v2h5z" fill="#353050"/>
<path transform="translate(1680,384)" d="m0 0 2 1 1 3 3 1-4 4h-3l-1-4h-2v-3z" fill="#5A5965"/>
<path transform="translate(1454,338)" d="m0 0 4 1v2h-2v2l-4 2-3 3h-2l1-4v2h2v-7z" fill="#302B4A"/>
<path transform="translate(1500,208)" d="m0 0 2 1v6l-5 2-2-2 1-5z" fill="#726B94"/>
<path transform="translate(2e3 82)" d="m0 0h4l-1 4-6 3h-5l2-4z" fill="#D4D6D5"/>
<path transform="translate(1311,3)" d="m0 0h5l-1 5-5 2-3 1-1-4z" fill="#89879B"/>
<path transform="translate(1727,765)" d="m0 0h2l-1 5-3 1-1 3-5 3h-2l-1-4 2-3v4l8-7z" fill="#8B86A4"/>
<path transform="translate(1816,735)" d="m0 0 4 1v8l-6-1-1 3v-6h2z" fill="#6B697B"/>
<path transform="translate(926,735)" d="m0 0m-1 1m-2 1h2v5h-2l-2 9-2-2-1-4z" fill="#18191F"/>
<path transform="translate(1580,622)" d="m0 0 3 3-2 4-5 3-4-1v-5l5 1 2-1z" fill="#928DAB"/>
<path transform="translate(1482,556)" d="m0 0 1 2 4-1 2 1v2l2 1-5 2h-6l1-4z" fill="#222133"/>
<path transform="translate(1613,433)" d="m0 0 3 2 1 6 3 1-4 2h-6l-2-2 1-3 1 3 3-1z" fill="#605E74"/>
<path transform="translate(530,294)" d="m0 0h9l-4 3-10 5-2-1 4-5z" fill="#2F2949"/>
<path transform="translate(1389,268)" d="m0 0 3 1zm-7 1h7l2 2-4 1-1 5-4 1z" fill="#777486"/>
<path transform="translate(1910,196)" d="m0 0 2 1-9 8-6 3-2-1 3-5 9-4z" fill="#332D4F"/>
<path transform="translate(1846,88)" d="m0 0 4 1 2 1v3l-4 3h-6l2-2z" fill="#9C99AF"/>
<path transform="translate(1123,24)" d="m0 0h3v6l-3 2h-10v-2l6-1h4z" fill="#46415F"/>
<path transform="translate(1872,20)" d="m0 0h2v2h2l1 3-5 5-5 3-1-4 5-1z" fill="#C7C6D0"/>
<path transform="translate(1853,685)" d="m0 0h2l-1 6h-3v2h-5l-2-3 1-2h4v2h2l1-4z" fill="#A09EB1"/>
<path transform="translate(1821,685)" d="m0 0 4 1 1 4-9 2-2-2v-3h5z" fill="#ADACBA"/>
<path transform="translate(1587,660)" d="m0 0 2 3 1 11-3 1v-5l-3-1v-2h2l-2-6z" fill="#17191E"/>
<path transform="translate(1282,568)" d="m0 0h4l2 5h-3v-2l-6 4-2 4-3 1 2-5 3-5h3z" fill="#8782A1"/>
<path transform="translate(801,542)" d="m0 0 4 2 5 4v2l-9-2-1-1-2 2 1-5z" fill="#16181D"/>
<path transform="translate(1777,509)" d="m0 0h6l1 6h-9v-4z" fill="#17191E"/>
<path transform="translate(1520,447)" d="m0 0h2l2 6-8 2v2l-4-1v-3l4 1v-2l2-1z" fill="#9C99AF"/>
<path transform="translate(2e3 388)" d="m0 0 2 1-1 5-10 2-3-3v-2l11 2z" fill="#B7B7C2"/>
<path transform="translate(616,384)" d="m0 0h4l-1 4-2 1-6 1-5 1v-3l2-1h6v-2z" fill="#1C1C27"/>
<path transform="translate(1854,27)" d="m0 0 1 2 4-1-1 4h-5l2 7-4-1v-6l-2-1h2v-2h3z" fill="#383351"/>
<path transform="translate(1585,792)" d="m0 0h2l4 7 1 3-3 1-5-5v-5z" fill="#E7E8E9"/>
<path transform="translate(2e3 576)" d="m0 0h5l4 5 3 9-1 2-1-1v-5h-2l-6-8z" fill="#222032"/>
<path transform="translate(1987,529)" d="m0 0h1v10l-2-2-4 6-5 1 3-5 4-3 1-5z" fill="#827E99"/>
<path transform="translate(1973,33)" d="m0 0h4l-1 3-9 4-4-1 4-4z" fill="#D4D6D5"/>
<path transform="translate(1721,734)" d="m0 0h3l1 6-3 3-3-1 1-2h3v-4l-4 4-2 3v-3h-2v-2z" fill="#817C9D"/>
<path transform="translate(1300,559)" d="m0 0 4 2v2h-3v-2l-2 1-3 5-4 2-1-5h5v-3z" fill="#696286"/>
<path transform="translate(1964,523)" d="m0 0h6l-1 5-3 3-3-1z" fill="#191A22"/>
<path transform="translate(1938,361)" d="m0 0h3v9l-4 2-4-1 4-5z" fill="#DDDCE1"/>
<path transform="translate(1690,301)" d="m0 0 5 1 2 3-2 1h-6l-1 2-4-2-2-4h2l1 2 4-1z" fill="#716C8E"/>
<path transform="translate(1931,292)" d="m0 0 4 1 1 5-5-2-1 5h-2l-2-3v-3h5z" fill="#A8A5BA"/>
<path transform="translate(1486,215)" d="m0 0h3v14h-2v-6h-3v-3h2z" fill="#C6C5CD"/>
<path transform="translate(1873,198)" d="m0 0 2 2 5-1 6-1-1 3-7 3h-6v-5z" fill="#B0AFBD"/>
<path transform="translate(1756,766)" d="m0 0h2v6h-2l-1 4h-2l-2-7 3-1 2 1z" fill="#ABA8BB"/>
<path transform="translate(1761,762)" d="m0 0 4 1 3 4v2l-4 2-4 1 1-7z" fill="#8D88A5"/>
<path transform="translate(1682,569)" d="m0 0 2 2v3l2 1-3 2h-5l-1-5z" fill="#3C3654"/>
<path transform="translate(799,546)" d="m0 0 14 5-4 2-9-2z" fill="#362E54"/>
<path transform="translate(1969,521)" d="m0 0 9 1v2h2l-1 4-6-3h-3v-2l-4-1z" fill="#332E4D"/>
<path transform="translate(1530,442)" d="m0 0 3 1v2h2v2l-6-1-1 5h-3v-5l4-1z" fill="#7D769B"/>
<path transform="translate(1585,788)" d="m0 0h2l5 8 3 2 1-2 2 5-6-1-5-6-2-3z" fill="#797396"/>
<path transform="translate(1818,717)" d="m0 0h3l1 4 5-3-1 5-1 1h-6l-1-1z" fill="#A9A7B6"/>
<path transform="translate(1552,705)" d="m0 0 3 1 1 5 3 1-3 1-1 4h-4l1-7h2z" fill="#39364B"/>
<path transform="translate(1569,692)" d="m0 0 5 2 3 4v4h-4l-1-6-4-2z" fill="#987FC3"/>
<path transform="translate(1861,680)" d="m0 0 5 1-1 5h-3v2l-3-1 1-6z" fill="#6D6591"/>
<path transform="translate(994,637)" d="m0 0 2 1-1 3-5 5-4 2-3-1 2-4 5-2 4-2z" fill="#3F385C"/>
<path transform="translate(2009,576)" d="m0 0h3l1 11-4-1-1-9z" fill="#B5AEC6"/>
<path transform="translate(2009,505)" d="m0 0h2l-1 7h-2l-2 3v-3l-8-1 3-2 7-2z" fill="#4A4664"/>
<path transform="translate(1132,378)" d="m0 0h9v4l-2 1h-7l-1-4z" fill="#060607"/>
<path transform="translate(1867,260)" d="m0 0 3 2-1 5 1 2h-5l-1-5z" fill="#585568"/>
<path transform="translate(1938,228)" d="m0 0h4l1 5-5 1-4 1 1-5z" fill="#BCBBC8"/>
<path transform="translate(1855,144)" d="m0 0h5l-4 3-3 3 6-1v2l-7 3-1-7z" fill="#ABAAB7"/>
<path transform="translate(941,797)" d="m0 0 3 1 2 6v4h-3l-2-3z" fill="#17191E"/>
<path transform="translate(1740,727)" d="m0 0h3v2l-2 1v4l-8 2v-4l3-1z" fill="#191724"/>
<path transform="translate(1688,664)" d="m0 0h2l-1 3-3 3h-4v2h-2v2h-2l1-6 8-3z" fill="#342E50"/>
<path transform="translate(843,580)" d="m0 0 1 4-4 9-2 5h-1l1-10z" fill="#312F45"/>
<path transform="translate(948,470)" d="m0 0h2l-2 7-4 5-6 1v-3l5-1z" fill="#9693AA"/>
<path transform="translate(1906,322)" d="m0 0 2 1-1 3-8 1v4h-3v-6h8v-2z" fill="#4E4B63"/>
<path transform="translate(773,299)" d="m0 0h2v2l-14 7-1 5-3-1 1-5z" fill="#4D427B"/>
<path transform="translate(1456,290)" d="m0 0 3 1v4h-2v-2l-4 2-4 5h-2v-2h2v-4z" fill="#5D5484"/>
<path transform="translate(1838,281)" d="m0 0 6 1v2l5 1v3l-5 1-3-3 2-3-6 1z" fill="#D6CCE3"/>
<path transform="translate(1741,87)" d="m0 0h3l2 6-1 5h-2v-2l-2-1 2-4h-6z" fill="#2B273E"/>
<path transform="translate(1877,17)" d="m0 0 5 2 1 6-4 1-3-6z" fill="#DFDFE3"/>
<path transform="translate(1775,756)" d="m0 0h2v6l-2 3-4-1-2-2v-3h3l1 4h2l-1-6z" fill="#A29FB3"/>
<path transform="translate(1757,715)" d="m0 0h2l-1 3 2 1-1 4-5 1v-6z" fill="#9693A9"/>
<path transform="translate(1561,633)" d="m0 0h3l-2 5-7 4h-3v-2l4-4z" fill="#A3A1B3"/>
<path transform="translate(2026,556)" d="m0 0 5 1 2-1v3l-4 1-2-1 1 6-3 1v-9z" fill="#AAA8BA"/>
<path transform="translate(1267,517)" d="m0 0h2l-1 5-4 3-3-1 1-4z" fill="#181622"/>
<path transform="translate(1445,491)" d="m0 0 4 1 1 2h3l1 4-2 3-5-5v-2h-2z" fill="#5B4F8E"/>
<path transform="translate(937,486)" d="m0 0h2l-1 3-15 7-2-1 6-4z" fill="#746E93"/>
<path transform="translate(1588,448)" d="m0 0h3v5l-4 4-4-1-2-5 3 1v2h4z" fill="#756E94"/>
<path transform="translate(2024,441)" d="m0 0 3 1v2l-8 3-4-1 1-3z" fill="#292739"/>
<path transform="translate(1890,386)" d="m0 0h3l-2 4-2 3h-2l-1 3h-2v-5h2v-2z" fill="#E5E5E7"/>
<path transform="translate(1955,278)" d="m0 0 7 1 1 5-5 1-3-3z" fill="#9895AB"/>
<path transform="translate(508,58)" d="m0 0v3l-7 6h-4v2l-6 3-2-1 7-5 7-4z" fill="#362F55"/>
<path transform="translate(1824,44)" d="m0 0 3 1-3 3h-2l-2 4-6 1 6-7z" fill="#E2E2E5"/>
<path transform="translate(1840,41)" d="m0 0h7l-4 4-9 3 2-4z" fill="#D8D8DC"/>
<path transform="translate(1098,16)" d="m0 0h3v5l4 1-4 5-3-1 3-1-1-2-3-1z" fill="#585177"/>
<path transform="translate(1769,743)" d="m0 0h3v4l-6 1v4h-2l-1-6h5z" fill="#8D88A6"/>
<path transform="translate(1554,618)" d="m0 0 2 3-7 3-1 2-4-1v-3h4l1-3 5 1z" fill="#A19DB4"/>
<path transform="translate(950,599)" d="m0 0 4 1-1 2-31-1v-1z" fill="#61578E"/>
<path transform="translate(1959,538)" d="m0 0 3 1 1 3 5 4v2l-5-1-4-5z" fill="#EAEAEC"/>
<path transform="translate(1510,499)" d="m0 0 6 2v3l-6 3-3-1 2-2z" fill="#17191E"/>
<path transform="translate(1600,441)" d="m0 0 2 1v2l3 1v2h-3l-2-2-5 5-1-4 1-2h3v-2z" fill="#747184"/>
<path transform="translate(1942,413)" d="m0 0 6 2 1 3-5 2-1 3-1-1z" fill="#C1C0CB"/>
<path transform="translate(684,354)" d="m0 0h3l1 9h-3l-4-6z" fill="#08070A"/>
<path transform="translate(1331,280)" d="m0 0h11v1l-10 2-7 4-3 3-2-1 7-7z" fill="#BFC0C7"/>
<path transform="translate(1860,21)" d="m0 0 3 1-2 1-1 4 2 1h-2l2 4-2 3-2-6h-3l2-6z" fill="#9693AB"/>
<path transform="translate(1106)" d="m0 0h9v2l-7 1-5 4-4-1h2v-2l4-2z" fill="#665F85"/>
<path transform="translate(1720,782)" d="m0 0 3 1 1 6 2 1-5 2-1-1z" fill="#B2B1BD"/>
<path transform="translate(1736,760)" d="m0 0 4 1 3 3-3 2h-5l-1-4h2z" fill="#9995AE"/>
<path transform="translate(1016,759)" d="m0 0h6v2l-9 2-1 2h-3l-1-4 5-1z" fill="#A3A0B3"/>
<path transform="translate(1712,740)" d="m0 0h2l-1 3h-2l-1 5-5 1-3-4 5-1z" fill="#817B9F"/>
<path transform="translate(1894,665)" d="m0 0h4v5l-8 1 1-5z" fill="#B4B2C4"/>
<path transform="translate(1991,583)" d="m0 0 3 3 2-1v2l3 1v2h-3v-2l-4 1v5l-2-4v-6z" fill="#9996AC"/>
<path transform="translate(800,551)" d="m0 0 9 1 2 2-5 3-4-1z" fill="#17181F"/>
<path transform="translate(1955,478)" d="m0 0 4 2 2 8-2 2-2-4v-3l-3-1z" fill="#252237"/>
<path transform="translate(1509,471)" d="m0 0 4 5-1 3h-5l-1-5 3-1z" fill="#48455A"/>
<path transform="translate(626,318)" d="m0 0 4 1-7 4-9 1 2-4 4-1v2z" fill="#403B59"/>
<path transform="translate(1781,68)" d="m0 0h1v8l-4 3-3-1 1-4h2l1-4z" fill="#453F5F"/>
<path transform="translate(1160,6)" d="m0 0 3 1v2h2v2l-4-2zm-6 1h6v3h-4v2l-3-1z" fill="#403962"/>
<path transform="translate(1801,744)" d="m0 0h2l-1 7-4 2-1-7h4z" fill="#A19EB2"/>
<path transform="translate(1842,722)" d="m0 0 4 2-2 3 2 1-3 2h-3l-1-6h2z" fill="#8B86A5"/>
<path transform="translate(1565,694)" d="m0 0 5 1 1 2-1 2h-2l-2 2-4-4z" fill="#3D3460"/>
<path transform="translate(1298,617)" d="m0 0h6v5l-1-3-5 1 1 5 2 2-5-1-1-7z" fill="#554B7F"/>
<path transform="translate(1941,479)" d="m0 0h3l2 6 2 1-1 2-2-1-1 2-3-4z" fill="#848199"/>
<path transform="translate(1831,473)" d="m0 0 4 3 1 4-2 4h-6l4-1v-6l-6-2v-1z" fill="#1F1E2C"/>
<path transform="translate(1917,425)" d="m0 0 5 1 5 6-1 2-4-1-2-4-3-2z" fill="#5A537C"/>
<path transform="translate(2006,380)" d="m0 0h2l1 3 3 3v3l-5 1z" fill="#A09DB2"/>
<path transform="translate(1199,342)" d="m0 0 1 2 4 1-1 5h-4l-1-7z" fill="#C3C4C9"/>
<path transform="translate(772,319)" d="m0 0 3 1-4 3-8 1-1-4h9z" fill="#504581"/>
<path transform="translate(1942,302)" d="m0 0 3 1 1 4h-5v2h-3l-1-4 4-1z" fill="#464161"/>
<path transform="translate(1881,255)" d="m0 0 4 1 5-1 1 3-3 2-5-1z" fill="#B0ADC0"/>
<path transform="translate(1426,250)" d="m0 0h1v5l-6 5h-2v-4l5-3z" fill="#B7B6C3"/>
<path transform="translate(1890,193)" d="m0 0 3 1-3 3h-3l-1 2-7 1v-2l3-1 2-3z" fill="#302C44"/>
<path transform="translate(1317)" d="m0 0h13l-5 4h-5v-2h-3z" fill="#89879B"/>
<path transform="translate(1673,791)" d="m0 0h5v2l4-2 1 2-5 4-2-2h-4z" fill="#5D5A73"/>
<path transform="translate(964,784)" d="m0 0 4 2 5 8v7h-2l-1-7z" fill="#756F92"/>
<path transform="translate(1603,779)" d="m0 0 4 2 2 4v4h-2l1 3-2 2v-6h-2v-2l2-1z" fill="#766F94"/>
<path transform="translate(779,770)" d="m0 0 1 3 4 1 2-1v2h5l-4 3h-5l-1-4h-2z" fill="#544887"/>
<path transform="translate(971,717)" d="m0 0 3 1-10 7-6 2v-3l9-3v-2h4z" fill="#A09DB1"/>
<path transform="translate(1520,564)" d="m0 0 4 1v3h-2l-1 2-7-2 1-3z" fill="#1E1D2A"/>
<path transform="translate(1511,487)" d="m0 0h7v5l-3-1-1 3h-2v-3l-2-1z" fill="#6C658B"/>
<path transform="translate(1961,422)" d="m0 0 5 1-1 3-4 2h-3l-2 1 1-4 4-1z" fill="#1A1B24"/>
<path transform="translate(1895,383)" d="m0 0h5l-1 3h-4l-2 4-5 5 2-5 2-4z" fill="#302B47"/>
<path transform="translate(1433,346)" d="m0 0h2l-1 7-4 4h-2l-1-4 4-1z" fill="#4D466E"/>
<path transform="translate(1346,283)" d="m0 0 5 2 5 7-3 1-7-7z" fill="#62578F"/>
<path transform="translate(1884,146)" d="m0 0h2l-1 4-5 4h-4l-3 1v-2l8-4z" fill="#222132"/>
<path transform="translate(1706,791)" d="m0 0 2 1 1 4h-2l-1 5h-2l-3-3v-3l5-1z" fill="#7E789B"/>
<path transform="translate(1680,772)" d="m0 0h2v4h-3l1 5h-4v-6z" fill="#918EA5"/>
<path transform="translate(1674,759)" d="m0 0h3l-1 5-2 2-4-1v-3z" fill="#A5A4B5"/>
<path transform="translate(1873,675)" d="m0 0h2l-1 5 3-1-1 4-4 1-1-6z" fill="#7E7999"/>
<path transform="translate(937,669)" d="m0 0h5l-1 2-7 3-8 6-1-2 6-5z" fill="#837E9D"/>
<path transform="translate(1657,582)" d="m0 0h2v2l6-1v3h-2v2l-4 1 2-4h-2v2h-3z" fill="#807B99"/>
<path transform="translate(1561,463)" d="m0 0h2v7l-4 2-1-8z" fill="#716B90"/>
<path transform="translate(1552,452)" d="m0 0h5v3l-6-1v3h-7v-2z" fill="#928FA7"/>
<path transform="translate(1915,430)" d="m0 0 5 3 1 2 3 2-3 1-2-1-1 3-3-6z" fill="#777195"/>
<path transform="translate(1609,419)" d="m0 0 3 1 1 2v6l-3 1-1-2z" fill="#726F85"/>
<path transform="translate(1150,360)" d="m0 0h5l3 7-1 4-3-5v-2l-4-2z" fill="#AAA8B9"/>
<path transform="translate(1442,317)" d="m0 0 1 3-11 5-4-1 4-3 9-3z" fill="#272538"/>
<path transform="translate(578,278)" d="m0 0 5 1v5h-2v-5l-3 2h-4l-1 4h-2l1-4 2-2z" fill="#3F3E50"/>
<path transform="translate(1820,228)" d="m0 0 4 1v2l-9 4 1-5z" fill="#7768A0"/>
<path transform="translate(1902,182)" d="m0 0h3l-1 4h-4v2h5l-1 2-6-2-2-2z" fill="#79758E"/>
<path transform="translate(1823,99)" d="m0 0h4v3l2 1-1 3-5 1z" fill="#5C5872"/>
<path transform="translate(1731,93)" d="m0 0h3v4h2v3l-9-1z" fill="#BAB9C6"/>
<path transform="translate(1847,32)" d="m0 0h4l-1 5-3 2h-3v-4z" fill="#E8E8EA"/>
<path transform="translate(1721,766)" d="m0 0h3l-1 5-3 3h-2v-5z" fill="#393846"/>
<path transform="translate(1835,726)" d="m0 0h3l-1 5h-3v5l-2-4-2-3z" fill="#837E9E"/>
<path transform="translate(1573,703)" d="m0 0 2 1-2 3h-2l-1 3-3 1v-3l1-4z" fill="#1A1B24"/>
<path transform="translate(1891,697)" d="m0 0 3 1 2 4-4 3h-2v-7z" fill="#787198"/>
<path transform="translate(1606,608)" d="m0 0h5l1 5h-6l-3-4z" fill="#474556"/>
<path transform="translate(1682,563)" d="m0 0h4 5l2 4-3 1-7-2z" fill="#15161C"/>
<path transform="translate(1482,550)" d="m0 0 4 1 2 4h-5l-2 1-5-1 4-3z" fill="#332C50"/>
<path transform="translate(1611,518)" d="m0 0 4 1v2l-4 1-1 2-5-1v-2l2-2z" fill="#312D4C"/>
<path transform="translate(1946,476)" d="m0 0 4 1h-3l1 9-3-1-1-6-3-1z" fill="#D4D6D5"/>
<path transform="translate(1641,422)" d="m0 0h4l-1 6-5 1v-6z" fill="#9491A8"/>
<path transform="translate(598,398)" d="m0 0 3 2 1 9-4-1z" fill="#17191E"/>
<path transform="translate(1430,347)" d="m0 0h2v5l-4 1-4-2 3-3z" fill="#262336"/>
<path transform="translate(1376,272)" d="m0 0h3v4l-3 1-1 3-4-1 3-6z" fill="#6E6B7D"/>
<path transform="translate(1455,236)" d="m0 0h2v5l-8 4h-2l1-3 3-2h3z" fill="#B4B3BE"/>
<path transform="translate(1574,234)" d="m0 0 2 1-6 4-6 3-3 1v-3l5-3z" fill="#615C7E"/>
<path transform="translate(1590,220)" d="m0 0h2l-1 4v4l-5 1 1-4-1-2z" fill="#373153"/>
<path transform="translate(1879,213)" d="m0 0 5 1v2l-9 4h-2v-2h3v-3z" fill="#201F2E"/>
<path transform="translate(1690,722)" d="m0 0 5 2v2h-2v2l-4 1-2-2 1-4z" fill="#060506"/>
<path transform="translate(1830,694)" d="m0 0h3l3 6-3 2-4-4z" fill="#8E8AA4"/>
<path transform="translate(1817,683)" d="m0 0 6 1-2 1-1 3-5-1-1 2-1-4z" fill="#262239"/>
<path transform="translate(1856,668)" d="m0 0 3 1-2 4-2 2h-4v-3z" fill="#B5B3C1"/>
<path transform="translate(2013,502)" d="m0 0 5 2 1 5-4-1-3-3z" fill="#CFCED6"/>
<path transform="translate(1448,423)" d="m0 0h4v4l-4 2-1 2h-3v-3h3z" fill="#787297"/>
<path transform="translate(1696,394)" d="m0 0h3v3h-4l-2 5h-2v-6z" fill="#A7A5B6"/>
<path transform="translate(1932,361)" d="m0 0h2v3h-2v6h-4v-5h2z" fill="#DCDCE1"/>
<path transform="translate(1157,357)" d="m0 0 4 1v2l3 1 1 7h-2l-4-8-2-1z" fill="#B1B0BB"/>
<path transform="translate(1187,349)" d="m0 0 3 3h2l1-3h4l-2 4-4 2h-4z" fill="#797494"/>
<path transform="translate(1942,287)" d="m0 0h2v3h-2v4l-4 1v-6z" fill="#A3A0B4"/>
<path transform="translate(1640,198)" d="m0 0 2 3-4 1-1 3-4-1 1-4z" fill="#16161D"/>
<path transform="translate(1876,134)" d="m0 0 4 2-1 3-4-1-1 5h-2l-1-6 5-1z" fill="#726A96"/>
<path transform="translate(1805,124)" d="m0 0 3 1 1 2 4-1v2h-3v2l-5 2-3-1 2-2h3z" fill="#2E2B41"/>
<path transform="translate(1730,91)" d="m0 0 3 2-5 5-4 1 1-5z" fill="#14121C"/>
<path transform="translate(1297,12)" d="m0 0v3l-3 1-2-1 2 6-4-1-1-1v-5l7-1z" fill="#908EA0"/>
<path transform="translate(1117,8)" d="m0 0h3l2 2 5-2v2h2v2h-6-4v-2h-2z" fill="#333047"/>
<path transform="translate(1172)" d="m0 0h8l-1 2-6 1-3 6h-2l1-5z" fill="#5D5389"/>
<path transform="translate(1695,766)" d="m0 0h2v3l3-1 1-2h4v2l-7 4h-3z" fill="#7C7697"/>
<path transform="translate(1749,753)" d="m0 0h4l1 3 3-1-2 4h-5z" fill="#8983A6"/>
<path transform="translate(1623,598)" d="m0 0 5 1 4-1 1 4-4 1-2-1v-2h-4z" fill="#827D9E"/>
<path transform="translate(857,526)" d="m0 0h2v2l-12 7v-4z" fill="#655C8D"/>
<path transform="translate(2047,487)" d="m0 0 1 4-4 1-1 3h-3l1-4z" fill="#C8C8CE"/>
<path transform="translate(964,466)" d="m0 0 4 1 2 2-1 4h-3l-1-4h-3v-2z" fill="#C4C4CC"/>
<path transform="translate(1537,458)" d="m0 0h3v5l-4-1v2l-5 1-1-3 5-1z" fill="#7E799B"/>
<path transform="translate(1657,413)" d="m0 0 3 2-1 5h-4l-3-4 4-1 1 3z" fill="#746D95"/>
<path transform="translate(1920,369)" d="m0 0h4l1 7h-3l-3-4z" fill="#E1E0E5"/>
<path transform="translate(1719,366)" d="m0 0 4 2-3 5h-4l-1-6 2 1 3 2z" fill="#7D769D"/>
<path transform="translate(1897,309)" d="m0 0 2 3v2l-6 2-1-3-3-2z" fill="#1F1E2D"/>
<path transform="translate(1345,285)" d="m0 0 7 5-1 2-4-1-3-2-5-1v-1z" fill="#C5C6C9"/>
<path transform="translate(1553,240)" d="m0 0h4v2l-8 2-1 4-2-2v-3z" fill="#928EA7"/>
<path transform="translate(1818,233)" d="m0 0h3v2l3 1-2 3h-5z" fill="#08080A"/>
<path transform="translate(2045,182)" d="m0 0h3l-1 3-6 3h-3v-4z" fill="#D4D6D5"/>
<path transform="translate(1821,162)" d="m0 0h2v3h4l1-3v3l5-1-1 2-6 2h-4z" fill="#75708E"/>
<path transform="translate(1792,115)" d="m0 0 3 3 3 2h-3v2l-4-1-3-2v-2h4z" fill="#767190"/>
<path transform="translate(1800,53)" d="m0 0 1 4h-2l-2 6h-2v-6z" fill="#C1BFCE"/>
<path transform="translate(1871,22)" d="m0 0 1 4-1 2-4 1-2 3-2-1v-3l6-3z" fill="#353049"/>
<path transform="translate(1632,797)" d="m0 0 6 2 4-1-1 3-7 1-2-1z" fill="#625E7C"/>
<path transform="translate(1662,798)" d="m0 0h2l1 7-4 3v-9z" fill="#9B97B0"/>
<path transform="translate(1031,751)" d="m0 0h2l-1 5-2 1 1-4-6 4-1 2h-2l2-4 3-3z" fill="#8A86A4"/>
<path transform="translate(1791,698)" d="m0 0 6 2-1 4-4-1-3-3z" fill="#A8A6B8"/>
<path transform="translate(1582,636)" d="m0 0 1 3-4 7h-3l1-5z" fill="#9E9CB0"/>
<path transform="translate(1644,603)" d="m0 0 5 1 2 1 1-2v3h-2l-2 4-3 1 1-5 1-2z" fill="#242235"/>
<path transform="translate(1580,601)" d="m0 0h3v4h-3v5h-2l-1-6z" fill="#5D5A71"/>
<path transform="translate(2007,585)" d="m0 0 5 2v5h-4z" fill="#6D55A5"/>
<path transform="translate(933,539)" d="m0 0h3v5l-2 3h-2l-1 4 1-9z" fill="#2E2C3F"/>
<path transform="translate(1561,445)" d="m0 0h3l2 3v3l-5 1-1-4z" fill="#8C88A4"/>
<path transform="translate(1879,391)" d="m0 0h4v4l-7 1 1-4z" fill="#252136"/>
<path transform="translate(1898,379)" d="m0 0 6 1-2 1-1 4-6-2z" fill="#908BAC"/>
<path transform="translate(1944,360)" d="m0 0h3l-1 6 1 3h-3l-2-4 1-4z" fill="#DDDCE1"/>
<path transform="translate(1523,300)" d="m0 0 4 1-1 5-3 3h-2v-3l2-1-1-4z" fill="#322F41"/>
<path transform="translate(1919,298)" d="m0 0h5v5l-5 1-1-5z" fill="#A5A4B3"/>
<path transform="translate(1477,278)" d="m0 0h3l1 5-5-1-1 5h-2l1-7z" fill="#766F98"/>
<path transform="translate(1874,260)" d="m0 0h2l-1 5-4 3-3-1 2-4z" fill="#BAB8C6"/>
<path transform="translate(1462,225)" d="m0 0 5 1-1 4-7-1 2-1z" fill="#7E7A93"/>
<path transform="translate(1843,151)" d="m0 0 5 1 3 1 1-2 1 4-7 2-2-2h2v-2l-3-1z" fill="#453F61"/>
<path transform="translate(1776,131)" d="m0 0h3v5l-4 3-5 1 2-4 4 1z" fill="#C9CBCD"/>
<path transform="translate(1791,65)" d="m0 0 3 3-1 3h-7l2-1v-4z" fill="#817D98"/>
<path transform="translate(1137,17)" d="m0 0h6l2 2v3h-5v-2l-3-1z" fill="#605C7A"/>
<path transform="translate(1351)" d="m0 0h7l-3 2-4 1v2l-3 2-4-1 6-4z" fill="#9659E2"/>
<path transform="translate(1695,798)" d="m0 0h4l1 6-4 1z" fill="#756F92"/>
<path transform="translate(1792,747)" d="m0 0 3 1v8h-2l-2-4z" fill="#9E9CB0"/>
<path transform="translate(923,742)" d="m0 0h2v10h-3v-8z" fill="#7F7A9C"/>
<path transform="translate(1577,672)" d="m0 0h4l-2 5-3 1-3-3z" fill="#17191E"/>
<path transform="translate(1561,648)" d="m0 0h2l1 6-5 2v-7z" fill="#A6A4B3"/>
<path transform="translate(978,648)" d="m0 0 3 2-7 3-6 2v-2z" fill="#595868"/>
<path transform="translate(1572,639)" d="m0 0 3 1-2 4-3 7h-2l3-11z" fill="#908DA5"/>
<path transform="translate(2017,561)" d="m0 0h3l1 6-4 1-1-6z" fill="#CCCBD6"/>
<path transform="translate(1916,373)" d="m0 0h2l-2 7-4 1-1-5z" fill="#807C99"/>
<path transform="translate(1964,275)" d="m0 0h5v6l-5-2z" fill="#AFADBC"/>
<path transform="translate(1835,94)" d="m0 0h2v4h-3v2l2 1-3 1-3-1 1-4h3z" fill="#262238"/>
<path transform="translate(1654,799)" d="m0 0h3v7l-1 2-4-1 2-6z" fill="#777194"/>
<path transform="translate(1697,747)" d="m0 0 4 1 3 3-4 2-3-1-1-4z" fill="#87839F"/>
<path transform="translate(1788,733)" d="m0 0 5 1 1 5-4-1-2-1z" fill="#A19FB2"/>
<path transform="translate(1874,689)" d="m0 0h3v2l-2 2v4h-3v-7z" fill="#A4A2B5"/>
<path transform="translate(1837,678)" d="m0 0 5 1-2 4-5 1 1-4z" fill="#A4A2B5"/>
<path transform="translate(1670,673)" d="m0 0 2 3-5 5h-2l-2-4 2-1 2 2 1-4z" fill="#181A21"/>
<path transform="translate(1322,548)" d="m0 0 4 2 1 4-3-1v-2l-7 1v-2z" fill="#7A7496"/>
<path transform="translate(1981,544)" d="m0 0h2l-1 3-2 1h-7l-1-2z" fill="#FAFAFA"/>
<path transform="translate(851,524)" d="m0 0 2 1zm-2 1h2v2l3-1-1 3-7 1 2-4z" fill="#0B0B0E"/>
<path transform="translate(1523,491)" d="m0 0 3 1-1 5h-4v-2l-2-1h2v-2z" fill="#17191E"/>
<path transform="translate(1951,472)" d="m0 0 6 1 2 2-1 3-4-2-2 1z" fill="#CBCDCE"/>
<path transform="translate(1542,463)" d="m0 0 3 4-3 3-3-1-1-5z" fill="#17191E"/>
<path transform="translate(2e3 404)" d="m0 0m-2 1 5 1v2l-5 3h-3v-4h3z" fill="#464163"/>
<path transform="translate(1405,319)" d="m0 0 3 1-4 3-9 4-3-1z" fill="#655E88"/>
<path transform="translate(1501,318)" d="m0 0h5v3l-10 2v-3l4-1z" fill="#65627A"/>
<path transform="translate(1696,296)" d="m0 0h2l2 3 5 1-3 3h-4z" fill="#756F93"/>
<path transform="translate(1356,287)" d="m0 0 5 4 2 4v5l-2-3-3-4-2-1z" fill="#C6C7CA"/>
<path transform="translate(1762,123)" d="m0 0h6v1l-6 2-2 4 1 4-4-2 1-5z" fill="#D0D1D4"/>
<path transform="translate(1742,90)" d="m0 0 2 2-4 5h-3v-4z" fill="#E4E5E6"/>
<path transform="translate(1731,779)" d="m0 0 5 1v6l-4-2z" fill="#B3B1BF"/>
<path transform="translate(1696,780)" d="m0 0 4 4v4h-2l-2 4-1-2 1-4z" fill="#7B7697"/>
<path transform="translate(1666,779)" d="m0 0h4l1 6-3 1-2-4z" fill="#928FA6"/>
<path transform="translate(1634,759)" d="m0 0h3l2 6h-4v-2h-2z" fill="#9C99AD"/>
<path transform="translate(1784,752)" d="m0 0 3 1-1 2h-1l-1 7-3-1 1-8z" fill="#A9A8B7"/>
<path transform="translate(1823,698)" d="m0 0 3 1-2 1 1 6-2 1v-3l-3 1-1-4z" fill="#423A66"/>
<path transform="translate(1633,689)" d="m0 0 9 1-2 4-4-1-3-2z" fill="#2F2B48"/>
<path transform="translate(1603,683)" d="m0 0h2v2l-5 2-6 1 2-4z" fill="#3A3556"/>
<path transform="translate(1605,625)" d="m0 0 1 2 3 1-1 3-6-1h-2l1-3z" fill="#6D668F"/>
<path transform="translate(1333,601)" d="m0 0 3 1 1 7-2 1-1-6-3 1-1 2h-2v-3z" fill="#6C6492"/>
<path transform="translate(1751,535)" d="m0 0 4 2 1 4h-4l-2-5z" fill="#D6D5DC"/>
<path transform="translate(2025,496)" d="m0 0 3 1 1 5-3 3-3-1 2-1z" fill="#BAB8C6"/>
<path transform="translate(1541,471)" d="m0 0 1 2 3 1-4 2 1 4h-3l-2-8 4 1z" fill="#5D5879"/>
<path transform="translate(1500,457)" d="m0 0 3 1-1 6h-3v-2l-2-1h2z" fill="#837F96"/>
<path transform="translate(1559,448)" d="m0 0 3 3 2 1-4 4-3-1v-6z" fill="#17171F"/>
<path transform="translate(1211,424)" d="m0 0 2 1-6 6-5-1v-4h2l1 2 4-2z" fill="#6D668E"/>
<path transform="translate(1639,408)" d="m0 0 5 1v3h-7l-1-3z" fill="#85819D"/>
<path transform="translate(1964,404)" d="m0 0h2l-1 4-3 5-2-2 1-4z" fill="#CCCCD3"/>
<path transform="translate(1895,386)" d="m0 0 2 4-3 5-4 1z" fill="#C8C8CF"/>
<path transform="translate(1713,288)" d="m0 0h2l1 6-3 1-3-2z" fill="#69608F"/>
<path transform="translate(1919,234)" d="m0 0h3l-1 4-3 1 1 3h-2v-3l-2-1z" fill="#4C4B5D"/>
<path transform="translate(1609,228)" d="m0 0 2 1-1 2h-3v3l2 1-5 1v-5z" fill="#3B345C"/>
<path transform="translate(1628,218)" d="m0 0 2 1-1 4-6 1 1-4z" fill="#14141B"/>
<path transform="translate(1883,208)" d="m0 0 6 1 1 2-6 3-2-1z" fill="#191A22"/>
<path transform="translate(1860,160)" d="m0 0h3l-2 5-5 1-2-1v-2l5 1z" fill="#3D375B"/>
<path transform="translate(1607,148)" d="m0 0h3l1 8-5-3-1-4z" fill="#383058"/>
<path transform="translate(1860,144)" d="m0 0 1 4-2 2h-6l1-3z" fill="#1F1C2E"/>
</svg>
